<svg fill="none" viewBox="0 0 324 4" xmlns="http://www.w3.org/2000/svg"><path d="m3.08612.0203396c1.8156-.0521055 4.19557.0036079 6.00431.0800774.56687.023718.27982.129734.67113.150879.76534.041221 1.47834-.010774 2.23464.03833.2506.016792-.0614.184722.2014.198486 1.4402.074215 2.8027.031441 4.2617.067138 7.1862.176121 14.2501.23916 21.5243.315673 2.3984.025085 5.3141.177487 7.7915.110839.2892-.007931.1168-.155331.1718-.16748.863-.185983.5761.111587 1.1396.151123 2.2364.156105 4.7233.169675 6.8756.112795.9157-.02464-.0024-.31741.9196-.153078.064.011103-.1683.167628.0828.184328.5695.03755 1.6499.00957 2.0912.02197.8506.02469.9914.02312 1.7959.0249 1.0998.0038 2.408.08161 3.588.04614.2519-.00803-.0816-.16849.3201-.1958.4021-.027257 1.4657-.013651 1.8243.02417.3587.03785.206.16397.2694.19287.5222.244 1.7526-.09393 1.9108-.10229 2.8864-.142397 5.3615.05011 8.0709.04956 2.0568-.00082 4.2561-.06438 6.2132-.05566 2.3316.011 4.3077.09795 6.5728.083.2391-.00139-.041-.19005.2509-.19213 3.102-.021958 6.1824-.00139 9.271.12597.3098.01294-.0894.17859.22.20142 1.8947.13613 4.893.46314 6.018-.25806 1.283.02816 2.841.05726 3.99.20264.74.09357.021.27402.93.19702.205-.01716-.061-.17519.246-.18897 1.295-.05785 2.71-.00648 3.991-.08813.261-.01698.19-.15858.263-.18408.621-.206507 1.654.13486 1.879.15967 1.715.18497 2.967.11218 4.565.1167.37.00112-.068-.18908.289-.19483 1.85-.02726 3.766-.01091 5.578.07349.403.01923.032.18125.225.19873.849.0751 1.037-.23092 1.851-.1648.172.01355.075.15225.106.16748.49.23913.916-.09969 1.042-.10717 1.595-.10221 2.614.2515 4.154.20141.185-.00635-.231-.18185.287-.18896 3.451-.04845 7.101-.00024 10.517.14013.531.02159.152.15343.185.16968.545.25394.898-.08631 1.071-.09912 1.366-.09224 2.642.1931 3.57-.21216 5.786.14064 11.546-.08693 17.284.27612.073.00421-.058.17178.088.17945 1.753.09409 1.416-.16635 2.576-.48486.292-.07999 1.18.30457 1.259.33276.287.10387-.011.35317.085.37329.794.15796.665-.66648 1.736-.66675.033.00138-.108.15313-.018.16821.28.04737.556-.01293.83.03931.625.12087.848.52148 1.803.28833.121-.03026-.064-.49792.892-.47583.381.00921 2.069.00119 2.541.0315.473.03027.148.18097.182.18749 1.273.19928.79.28188 1.428.57691.637.29392.46-.40711.72-.48535.261-.07803 1.193.08639 1.423.14355.229.05718-.057.15295.147.1853 1.351.21142.593-.34796 1.038-.45922 1.05-.26346 1.867.25643 2.828.30737.26.01376.048-.10465.279-.11572.917-.04229 1.469.11993 2.512-.02881.17-.02424 1.014-.33681 1.56-.10742.077.03307-.143.16263.248.19165.584.04355 1.636.07186 2.263.02856.463-.03204-.068-.24551.515-.1792.26.02961-.221.1545.266.19971.485.0452 1.723.03971 2.194.0354.47-.00441.213-.16634.251-.17725.23-.06249 1.133-.14057 1.212-.14038 4.024-.01977 7.734.25318 11.652.16284.307-.00685.102-.17761.149-.18042 1.053-.07154.223.38246.958.53443-.106-.34652.328-.28378 1.069-.32178.358-.01859.163-.15277.196-.1665.529-.2038.898.05943.993.11328.351.19808.733-.03597.972.09643.238.13141-.311.32623.4.32373.2-.12404-.328-.44819.212-.50073 2.036-.19872 5.838.05561 7.476.08203 1.634.0264 2.162.00351 3.115.04834 1.72.08106 1.089-.15944 2.158-.26953 1.071-.11007.55.48168.704.60889.151.12715.316-.00374.504.06616.188.06988-.218.15637.223.18261.441.02622 1.647-.19999 1.803-.333.331-.2818-.213-.57755.954-.47363.067.00616-.15.16176.107.17749 2.041.11978 4.162.12721 6.2.23315.281.01481.03.18791.193.19849 1.7.11071 1.092-.18115 2.024-.50537-.21.43147.305.69544 1.595.69799.775.00168.642-.18676 1.143-.31958.151-.04003.699.08936.799.00074.328-.2897-.189-.614 1.141-.48487.058.00614-.128.16472.074.17432 1.303.06286 1.459-.24016 2.867-.27685 1.104-.0288 3.068.15598 4.325.18603-.027.4851 1.161.37402 1.642.03955.816.01369 1.697-.00521 2.486.04102.271.01576.093.15621.127.17138.525.23806.88-.08734 1.056-.1001 1.908-.124 3.463.12262 5.285-.1184.064-.00868.169-.34565.656-.09961.032.01696-.57.17027.287.18213.857.01188 2.472.19252 3.662.03637.288-.03759 1.016-.31113 1.601-.09741.077.02902-.008.12567.105.17944.363.17136.561-.16923.988.12012.428.28933 1.316.50602 2.516.3064.038-.00581.322-.27576.699-.27149.602.00705 1.458.06328 2.086.06153.302-.00094.109-.16857.161-.17163 2.025-.09394 3.466.0555 5.635.12036.397.01222 1.54-.21636 2.31-.03565.845.19783-.023 1.02077 1.919.82471.784-.07842 1.776-1.12246 3.184-.58154 2.731-.13404 5.257.1428 7.996-.04859.123-.00848.512-.29986.802-.2959.43.00646.666.14264.973.15161 1.286.04103 2.462-.07549 3.702-.05737.471.00659.307.1474.868.15528.561.00773.935-.1777 1.696-.08814.574.06826 1.148.44728 1.911.49145.029-.37385.552-.36615 1.483-.46484.179-.01915-.013-.14927.071-.16504.345-.06706.664.04078.991-.03222.079-.01754.083-.14521.148-.16675.553-.18802 1.464.09916 1.62.14917.6.1899.88.02385 1.34.09863.459.07477-.227.16825.309.21362 1.112.09386 2.54.07324 3.67.0791.45.00156.143-.16887.207-.1726.932-.04323 1.874.13806 2.391-.20142.645.87776.561-.08513 1.893.09058.105.01421.238.42929-.164.49023-.403.06088-1.014-.06887-1.572.02612-.133.0223-.891.41126-.994.43482-.81.18414-.925-.43615-.968-.47022-.486-.36766-1.412.05137-1.656.08033-1.116.13267-2.064.04543-2.997.14013-.611.06121-.67.46752-1.15.45508-1.593-.04111-2.149-.60791-3.651-.11646-.322.10482-.002.54891-1.156.19971-.072-.02201-.928-.34146-1.423-.1394-.062.02547-.06.1549-.142.16577-.55.07032-.916-.03278-1.515.0166-.598.04938-1.317.123-2.001.0791-.411-.02625-.939-.26738-1.137-.32641-.556-.17007-1.153.10877-1.498-.09717-.347-.20698.332-.5213-.579-.65503-.034.33625-.112.68137-.166 1.01953-1.998-.01184-3.964-.12057-5.968-.10571-.249.00217.005.18294-.261.18994-1.124.02871-2.106-.10015-3.272-.04883-.902.04041-1.892.23181-2.835.28003-.576-.38476-1.977-.25415-2.994-.28931-.356-.01215-.332-.11491-.585-.14844-.956-.12399-.508.21603-.77.26954-1.125.22836-1.221-.54124-2.547-.52222-.07.00075-.928.41098-1.046.43652-.752.16658-.125-.14278-.595-.17309-.858-.05539-1.455-.15336-2.462-.03321-.294.03559-.998.29129-1.568.09351-.075-.0259-.034-.16149-.094-.16943-1.093-.13237-1.122.29369-1.747.43798-.624.14427-1.589-.14985-1.786-.23462-.513-.21928.394-.09371.422-.11523.327-.25609-.377-.212-.915-.23364-.078-.41776-.83-.39268-.557-.02075.031.04062.449.00166.557.02075-.472.40987-1.298.46237-2.211.07934-.427-.17951-.023-.38882-1.321-.31225-.589.03456-.362.32221-.881.40063-1.188.17893-2.731-.08939-3.956-.04712-.444.01535-.011.17281-.315.18872-.806.04273-1.516-.07541-2.326-.01489-.073.00568.106.17051-.146.17261-1.908.01914-3.569-.08643-5.561-.08936-.963-.00134-2.684.08957-3.681.07129-1.728-.0307-3.854-.27038-5.331-.21216-.963.03727-.752.20213-1.164.31446-.796.21773-2.206-.17228-2.395-.23267-.006-.002.822-.04086.38-.12549-.257-.17633-.371.12473-.38.12549-.125-.03901-1.78-.07643-2.109-.04492-.179.01722-.079.17342-.172.17944-2.213.13978-4.43.17948-6.675.10645-.04-.00316.02-.17787-.073-.18311-1.3-.07768-2.132.13605-3.204.26294-1.071.12684-1.921.08436-2.556-.21557-.808.03776-1.968-.09484-2.636-.1753-.668-.08045-.761.25964-.82.26636-1.832.21519-2.891.02053-4.791-.00977-.904-.01498-2.696.03435-3.675.07154-.773.02996-1.239-.04974-1.951.00122-.097.0068.001.15823-.029.16406-.795.18117-.413-.18901-.577-.25513-.595-.24042-.963-.36847-1.981-.25537-.235.02591-.919.55892-1.348.59009-.556.03955-.346-.1515-.929-.10522-.05.00378-.039.12165-.399.11645-1.67-.02257-3.491-.09116-5.226-.07935-.237.00117.067.18812-.276.19288-1.607.02216-3.368.01524-4.933-.07227-.386-.02213-.144-.15303-.228-.19189-.513-.23517-1.242.10652-1.362.11303-2.866.16421-5.06-.14503-7.982.0022-.159.00864-1.383.37495-1.929.06079-.038-.0209-.578-.34232-1.056-.12256-.029.01375.307.17922-.28.16236-.588-.01683-1.533.09367-2.341-.08814-.256-.05727-.86-.37789-1.623-.12231-.05.01784-1.227.59574-1.647.19702-.069-.06564.003-.48758-.908-.27124-.174.04194.142.13605-.316.19482-.702.09058-1.632-.02243-2.495.16553-.151.03327-.792.31966-1.306.10229-.08-.03404.073-.17491-.199-.19067-1.29-.07562-2.642.01861-3.952-.07886-.464-.03424-.227-.26197-.711-.32299-.484-.06101-1.459-.11969-1.965-.01563-.507.10411.047.46705-.712.49609-3.298.12614-6.566-.08677-9.859-.11792-.489-.00465-.084.12522-.804.12769-2.654.00966-7.236.13143-9.539-.14453-1.845-.22103.477-.3893-.933-.47925-.681-.04291-1.417.37905-1.581.39233-1.604.13494-2.72-.05197-4.164.00538-.298.0119-.006.18292-.259.19116-.867.02966-1.779-.04668-2.607-.03272-.372.00666-.303.13728-.645.1272-.819-.02262-1.542-.07753-2.34-.19995-.073-.01116.418-.17364-.188-.17969-.98-.00932-2.196-.13009-3.323-.00537-.335.03752-.348.33605-1.067.12988-.151-.04306.042-.40153-.796-.09179-.141.05147-1.548.46924-2.238.19995-.182-.07088-.647-.36422-1.05-.31812-.054.00736.164.16771-.169.18335-1.175.05233-2.406.03523-3.613.08545-.322.01373.158.17966-.322.19482-1.321.04194-2.97-.0003-4.262-.05224-.476-.01947-.147-.15692-.181-.17188-.558-.2433-.887.0851-1.072.10425-1.15.11466-2.026-.0396-3.086.00122-.293.01085-.085.16744-.144.1814-.604.13642-.154-.14479-.536-.17578-1.071-.08777-2.265-.07519-3.348-.05518-.398.00758.049.18914-.308.19385-2.113.03129-4.3102.01391-6.3726-.08618-.3883-.01918-.144-.15899-.225-.19092-.5578-.22341-1.3753.08132-1.5635.11035-.8553.13254-1.1876.00891-1.9429.03198-3.69.1149-8.2462.03301-11.7293-.01757-4.5389-.06511-8.061-.19812-12.3893-.16358-.2751.00202.0023.18801-.2348.19214-3.0617.04484-6.0759-.02784-9.1437.02588-.2518.00408.1111.1804-.2929.19287-.8288.02682-1.8787.01724-2.7167-.03906-.4087-.02713.1395-.17843-.2719-.20264-.9579-.05672-1.9848-.06928-2.9688-.04101-.4187.01241.213.19274-.3312.19482-3.7075.01789-7.3487.04895-11.0953-.18457-.2568-.01604-.4822-.38254-1.0283-.31226-.0411.10172-.0389.22136-.0569.33008-5.3971.05856-10.7392-.06849-16.1515-.08813-.2282-.00079.1661.1934-.2757.19287-2.557-.00287-5.04.05092-7.6555-.14209-.2595-.01888-.1264-.36051-.8911-.30884-.1349.00943-1.2868.05499-1.5846.12915-.0404.01119.1697.17065-.2014.17529-2.1569.02422-4.4172-.01219-6.5704-.10962-.34751-.01602.02256-.18584-.22495-.19873-1.75571-.09014-3.66541.03895-5.34307-.11523-1.12297-.10381-.70722-.39734-1.30395-.68628-.0844-.04076-.779773-.04722-.815733-.21533-.09232-.42272.244497-.8856.106293-1.33618-.029199-.097046-.960486.00748-.409105-.227045.03852-.015696.713708-.093535.880005-.173095.11578-.055007-.09286-.225972.14337-.296386.23622-.070348.49579.072964.88743-.009766.39146-.083753.21933-.2782453 1.00113-.3012684zm214.14688 2.7019004c-.618-.16333-.709.43486-.041.29174.033-.00763.073-.28373.041-.29174zm74.789-.09449c-.808-.26384-1.361.12411-.791.32788.57.20355 1.038-.2479.791-.32788zm8.38-.19262c-.944-.20803-1.093.64022-.081.46875.059-.00969.137-.45667.081-.46875zm-296.34194.06201c-.00854-.00795-.5084-.01569-.52034-.00781-.26617.18998.73335.20533.52034.00781zm304.65794-.27173c-.295-.11474-1.144.01772-.778.1604.295.11479 1.145-.01766.778-.1604zm-123.73-.1416c-.01-.00891-.368-.01694-.361.03345.024.16228.523.11648.361-.03345zm137.863.13184c-2.088-.03193-3.354-.73263-1.08-.65357.412.01431-.888.22345-.363.28662.959.11509 1.595-.32486 2.574-.08911.177.04315-1.012.45943-1.135.45703.002-.00032.003-.00065.004-.00097zm-105.974-.21192c-.012-.00791-.508-.01541-.52-.00757-.269.18991.73.20513.52.00757zm-52.8-.28979c-.028-.01686-1.179-.03262-1.217-.01709-.6.31055 1.727.34334 1.217.01709zm86.211-.14795c.541-.19105 1.188-.21354 1.62.02637-.538-.01274-1.079-.01462-1.62-.02637z"/></svg>