<svg preserveAspectRatio="none" viewBox="0 0 27 55" fill="none" xmlns="http://www.w3.org/2000/svg">
<mask id="mask0_1469_4988" style="mask-type:alpha" maskUnits="userSpaceOnUse" x="0" y="0" width="27" height="55">
<rect width="27" height="55" />
</mask>
<g mask="url(#mask0_1469_4988)">
<path d="M-210.6 28C-210.6 14.1929 -199.407 3 -185.6 3H-0.700117C13.107 3 24.2999 14.1929 24.2999 28V28C24.2999 41.8071 13.107 53 -0.700104 53H-185.6C-199.407 53 -210.6 41.8071 -210.6 28V28Z" />
<path d="M-180.581 0.525425C-177.629 0.460293 -173.759 0.529934 -170.817 0.625522C-169.895 0.655168 -170.362 0.787689 -169.726 0.81412C-168.481 0.865646 -167.322 0.800652 -166.092 0.862032C-165.684 0.883023 -166.192 1.09294 -165.764 1.11014C-163.422 1.20291 -161.207 1.14944 -158.834 1.19406C-147.148 1.41421 -135.661 1.49301 -123.832 1.58865C-119.931 1.62001 -115.19 1.81051 -111.161 1.7272C-110.691 1.71729 -110.971 1.53304 -110.882 1.51785C-109.478 1.28537 -109.945 1.65734 -109.029 1.70676C-105.392 1.90188 -101.347 1.91886 -97.8474 1.84775C-96.3583 1.81696 -97.8513 1.45099 -96.352 1.6564C-96.2479 1.67028 -96.6257 1.86594 -96.2174 1.88681C-95.2913 1.93375 -93.5343 1.89877 -92.8166 1.91428C-91.4333 1.94514 -91.2045 1.94317 -89.8962 1.9454C-88.1076 1.95015 -85.9804 2.04741 -84.0614 2.00308C-83.6518 1.99304 -84.1941 1.79246 -83.5408 1.75833C-82.887 1.72425 -81.1573 1.74126 -80.5742 1.78854C-79.9909 1.83585 -80.2392 1.9935 -80.136 2.02963C-79.2868 2.33462 -77.286 1.91221 -77.0287 1.90176C-72.335 1.72377 -68.3099 1.9644 -63.904 1.96371C-60.5592 1.96268 -56.9827 1.88324 -53.8001 1.89413C-50.0085 1.90789 -46.7949 2.01658 -43.1114 1.99789C-42.7227 1.99615 -43.1782 1.76032 -42.7034 1.75772C-37.659 1.73028 -32.6497 1.75599 -27.627 1.91519C-27.1233 1.93136 -27.7725 2.13842 -27.2693 2.16696C-24.1882 2.33712 -19.313 2.74589 -17.483 1.84439C-15.3959 1.87959 -12.8621 1.91596 -10.995 2.09769C-9.7911 2.21464 -10.9604 2.44021 -9.48152 2.34396C-9.14798 2.32252 -9.58176 2.12498 -9.08154 2.10776C-6.97564 2.03544 -4.67484 2.09965 -2.59153 1.99759C-2.16779 1.97636 -2.28351 1.79936 -2.16342 1.76749C-1.74401 1.6602 -1.20881 1.67122 -0.700117 1.72296C0.0571633 1.79459 0.733002 1.98634 0.956741 2.01898C3.82712 2.45633 5.90695 2.8387 8.43565 3.77134C9.0192 3.99715 8.4137 3.50708 8.98029 3.72151C11.9185 4.84813 14.7159 6.65133 16.8997 8.80966C17.3829 9.2914 16.7864 9.01234 17.0079 9.24984C17.9623 10.3034 18.4574 10.2758 19.2909 11.3807C19.463 11.6152 19.2246 11.5992 19.2436 11.6521C19.5304 12.4709 20.2812 12.7901 20.4148 12.9614C22.0636 15.1082 22.4715 16.8585 23.4309 19.228C23.5422 19.5158 23.5161 18.7829 23.8136 19.6024C24.7521 22.2434 25.2386 25.1236 25.2094 28C25.2094 28 25.2094 28 25.2094 28C25.1855 31.0979 24.5582 34.1753 23.4404 36.9234C23.0997 37.746 23.1716 37.0922 23.1329 37.1382C22.5144 37.8612 22.6593 38.553 22.5511 38.826C21.6862 40.9607 20.2045 42.5231 19.6393 44.0482C14.7292 50.1162 7.07522 53.9705 -0.700104 53.7538C-2.54674 53.7126 -4.39195 53.6517 -6.23582 53.562C-6.35446 53.5568 -6.14185 53.3473 -6.37852 53.3377C-9.22867 53.2201 -8.68132 53.5457 -10.5672 53.9438C-11.0422 54.0438 -12.4874 53.5631 -12.6153 53.5279C-13.0811 53.398 -12.5979 53.0864 -12.754 53.0613C-14.0448 52.8638 -13.8345 53.8944 -15.5759 53.8947C-15.6304 53.893 -15.4016 53.7033 -15.5477 53.6844C-16.0018 53.6252 -16.4521 53.7006 -16.8964 53.6353C-17.9134 53.4842 -18.2756 52.9834 -19.8289 53.2749C-20.0255 53.3127 -19.7252 53.8973 -21.28 53.8697C-21.8998 53.8582 -24.6435 53.8682 -25.4124 53.8303C-26.1804 53.7925 -25.6531 53.6041 -25.7079 53.5959C-27.7772 53.3468 -26.9925 53.2436 -28.0293 52.8748C-29.066 52.5074 -28.7785 53.3837 -29.2011 53.4815C-29.6244 53.579 -31.1416 53.3735 -31.5145 53.302C-31.8871 53.2306 -31.4224 53.1109 -31.7537 53.0704C-33.9508 52.8061 -32.7181 53.5054 -33.442 53.6444C-35.1488 53.9738 -36.4781 53.3239 -38.0407 53.2602C-38.4635 53.243 -38.1185 53.391 -38.4949 53.4049C-39.986 53.4577 -40.8827 53.255 -42.5791 53.4409C-42.8566 53.4712 -44.2279 53.8619 -45.1156 53.5752C-45.2413 53.5338 -44.8841 53.3719 -45.5196 53.3356C-46.4688 53.2812 -48.1793 53.2458 -49.1997 53.2999C-49.9531 53.3399 -49.0896 53.6068 -50.0379 53.5239C-50.4593 53.4869 -49.6782 53.3308 -50.47 53.2743C-51.2576 53.2178 -53.2713 53.2246 -54.0376 53.23C-54.8025 53.2355 -54.3838 53.4379 -54.4456 53.4516C-54.8197 53.5297 -56.2876 53.6273 -56.4173 53.627C-62.9605 53.6518 -68.9942 53.3106 -75.3648 53.4235C-75.8647 53.4321 -75.5317 53.6455 -75.608 53.649C-77.3195 53.7384 -75.9701 53.1709 -77.1657 52.981C-76.9929 53.4141 -77.6986 53.3357 -78.9043 53.3832C-79.4852 53.4065 -79.1688 53.5742 -79.2218 53.5913C-80.0834 53.8461 -80.6833 53.5171 -80.8378 53.4497C-81.4084 53.2021 -82.0293 53.4947 -82.4176 53.3292C-82.8056 53.1649 -81.9126 52.9214 -83.0688 52.9245C-83.393 53.0796 -82.5346 53.4848 -83.4125 53.5504C-86.7247 53.7988 -92.9073 53.4809 -95.5705 53.4479C-98.2283 53.4149 -99.0867 53.4435 -100.635 53.3875C-103.433 53.2862 -102.408 53.5868 -104.145 53.7244C-105.887 53.862 -105.04 53.1223 -105.29 52.9633C-105.536 52.8044 -105.805 52.968 -106.11 52.8806C-106.415 52.7932 -105.755 52.6851 -106.472 52.6523C-107.19 52.6196 -109.15 52.9023 -109.405 53.0686C-109.942 53.4208 -109.059 53.7905 -110.956 53.6606C-111.065 53.6529 -110.711 53.4584 -111.129 53.4388C-114.449 53.289 -117.897 53.2797 -121.213 53.1473C-121.669 53.1288 -121.261 52.9124 -121.527 52.8992C-124.29 52.7608 -123.302 53.1256 -124.817 53.5309C-124.477 52.9916 -125.314 52.6616 -127.412 52.6584C-128.672 52.6563 -128.455 52.8919 -129.271 53.0579C-129.515 53.1079 -130.407 52.9462 -130.569 53.057C-131.102 53.4191 -130.262 53.8245 -132.424 53.6631C-132.519 53.6554 -132.217 53.4572 -132.545 53.4452C-134.664 53.3666 -134.917 53.7454 -137.208 53.7912C-139.003 53.8272 -142.196 53.5963 -144.241 53.5587C-144.198 52.9523 -146.128 53.0912 -146.912 53.5092C-148.238 53.4921 -149.671 53.5158 -150.954 53.458C-151.395 53.4383 -151.105 53.2627 -151.161 53.2437C-152.014 52.9462 -152.591 53.3529 -152.877 53.3689C-155.981 53.5239 -158.51 53.2156 -161.472 53.5169C-161.577 53.5277 -161.747 53.9489 -162.539 53.6414C-162.59 53.6202 -161.612 53.4285 -163.005 53.4137C-164.399 53.3989 -167.026 53.1731 -168.96 53.3683C-169.429 53.4152 -170.613 53.7572 -171.563 53.49C-171.69 53.4537 -171.551 53.3329 -171.734 53.2657C-172.325 53.0515 -172.648 53.4773 -173.342 53.1156C-174.037 52.7539 -175.481 52.483 -177.432 52.7326C-177.494 52.7398 -177.956 53.0773 -178.57 53.0719C-179.549 53.0631 -180.94 52.9928 -181.963 52.995C-182.452 52.9962 -182.139 53.2057 -182.224 53.2096C-183.443 53.2531 -184.533 53.2548 -185.6 53.2357C-187.432 53.1957 -189.195 52.9464 -191.351 52.396C-191.973 52.2492 -193.87 52.0015 -194.955 51.3028C-196.115 50.5214 -194.477 50.2284 -197.281 49.054C-198.364 48.5603 -200.514 48.7748 -201.834 46.7481C-205.283 43.9503 -207.377 40.2855 -209.068 36.2246C-209.144 36.0439 -209.692 35.5531 -209.819 35.0936C-210.008 34.4121 -209.934 33.9955 -210.033 33.5066C-210.406 31.6184 -210.71 29.8546 -210.715 28C-210.715 28 -210.715 28 -210.715 28C-210.715 27.8385 -210.713 27.6769 -210.708 27.5151C-210.678 26.7459 -210.517 27.024 -210.448 26.114C-210.365 25.2146 -210.533 24.574 -210.201 23.3698C-209.942 22.4627 -209.272 21.673 -208.855 20.5434C-209.281 20.3598 -209.043 19.547 -208.562 18.1089C-208.468 17.832 -208.742 18.054 -208.705 17.9193C-208.554 17.3664 -208.207 16.9532 -208.043 16.4354C-208.002 16.3095 -208.141 16.2301 -208.114 16.1223C-207.902 15.1896 -206.781 14.0924 -206.583 13.9253C-205.835 13.2464 -205.725 12.7634 -205.181 12.2307C-204.635 11.7103 -205.253 12.6465 -204.656 12.0123C-203.421 10.7018 -201.758 9.1024 -200.277 8.03866C-199.688 7.6138 -200.213 7.73147 -200.132 7.66665C-198.928 6.73081 -197.486 6.18641 -196.923 5.43363C-195.494 5.97033 -196.165 4.88966 -194.027 4.319C-193.858 4.27865 -193.492 4.69629 -194.068 4.98541C-194.643 5.27571 -195.609 5.4983 -196.358 6.00023C-196.545 6.11396 -197.369 7.10427 -197.485 7.21378C-198.45 8.0432 -199.006 7.51454 -199.092 7.51318C-200.009 7.55229 -200.892 8.88625 -201.152 9.16172C-202.406 10.4178 -203.524 11.4268 -204.372 12.6431C-204.918 13.4435 -204.561 13.8245 -205.002 14.4143C-206.403 16.3976 -207.462 16.9028 -207.793 19.3038C-207.842 19.823 -207.185 19.5294 -208.144 21.0677C-208.207 21.1562 -208.958 22.3342 -208.858 23.1461C-208.846 23.2471 -208.687 23.2759 -208.698 23.4012C-208.771 24.2408 -208.983 24.7752 -209.015 25.6968C-209.036 26.3935 -209.015 27.1951 -209.01 28C-209.01 28 -209.01 28 -209.01 28C-209.009 28.2542 -209.01 28.5074 -209.015 28.7571C-209.031 29.3794 -209.264 30.2159 -209.302 30.5281C-209.425 31.4183 -208.923 32.2767 -209.066 32.8465C-209.202 33.4371 -209.829 32.4572 -209.663 33.9232C-209.241 33.8762 -208.793 33.8898 -208.363 33.8644C-207.62 36.8187 -206.415 39.6531 -204.554 42.1189C-204.322 42.4223 -204.377 41.976 -204.123 42.2932C-203.047 43.6168 -202.124 44.8228 -200.724 45.9304C-199.637 46.7849 -198.267 47.4547 -197.008 48.0991C-196.498 48.9633 -194.481 49.7643 -193.021 50.2709C-192.508 50.4546 -192.581 50.5641 -192.219 50.7152C-190.838 51.2559 -191.399 50.655 -190.997 50.6893C-189.284 50.7662 -189.304 51.7592 -187.226 51.9151C-187.11 51.9305 -185.802 51.4776 -185.6 51.4251C-185.597 51.4245 -185.595 51.4241 -185.593 51.4237C-184.371 51.2155 -185.39 51.6022 -184.626 51.6401C-183.23 51.7093 -182.26 51.8318 -180.622 51.6816C-180.144 51.6371 -178.999 51.3175 -178.071 51.5647C-177.949 51.597 -178.017 51.7665 -177.919 51.7765C-176.141 51.9419 -176.094 51.4094 -175.079 51.229C-174.063 51.0487 -172.494 51.4163 -172.174 51.5223C-171.339 51.7964 -172.814 51.6394 -172.86 51.6663C-173.391 51.9864 -172.247 51.9313 -171.372 51.9584C-171.246 52.4805 -170.023 52.4492 -170.466 51.9843C-170.516 51.9335 -171.197 51.9822 -171.372 51.9584C-170.605 51.446 -169.261 51.3804 -167.777 51.8592C-167.082 52.0836 -167.739 52.3452 -165.628 52.2495C-164.67 52.2063 -165.04 51.8467 -164.195 51.7487C-162.264 51.525 -159.754 51.8604 -157.763 51.8076C-157.041 51.7884 -157.745 51.5916 -157.251 51.5717C-155.94 51.5183 -154.784 51.666 -153.468 51.5903C-153.349 51.5832 -153.64 51.3772 -153.231 51.3746C-150.128 51.3506 -147.426 51.4826 -144.186 51.4862C-142.621 51.4879 -139.822 51.3743 -138.201 51.3971C-135.39 51.4355 -131.933 51.7351 -129.532 51.6623C-127.966 51.6157 -128.31 51.4097 -127.639 51.2693C-126.344 50.9971 -124.052 51.4846 -123.743 51.5601C-123.734 51.5626 -125.081 51.6112 -124.362 51.717C-123.944 51.9374 -123.759 51.5611 -123.743 51.5601C-123.541 51.6089 -120.849 51.6556 -120.315 51.6163C-120.024 51.5947 -120.187 51.3995 -120.035 51.3919C-116.436 51.2172 -112.83 51.1676 -109.18 51.2589C-109.115 51.2628 -109.212 51.4812 -109.061 51.4878C-106.948 51.5849 -105.594 51.3177 -103.851 51.1591C-102.109 51.0006 -100.726 51.0537 -99.6948 51.4286C-98.3798 51.3814 -96.4933 51.5471 -95.4077 51.6477C-94.3221 51.7483 -94.1706 51.3231 -94.0751 51.3147C-91.0958 51.0457 -89.3736 51.2891 -86.2827 51.3269C-84.8132 51.3457 -81.8983 51.284 -80.3072 51.2375C-79.0497 51.2001 -78.2922 51.2997 -77.1335 51.236C-76.9768 51.2275 -77.1351 51.0382 -77.0873 51.0309C-75.7942 50.8045 -76.4156 51.2672 -76.1487 51.3498C-75.1807 51.6504 -74.5827 51.8104 -72.9268 51.669C-72.5448 51.6367 -71.4322 50.9704 -70.736 50.9314C-69.8307 50.882 -70.1724 51.1208 -69.2245 51.063C-69.1434 51.0582 -69.1603 50.9109 -68.5753 50.9174C-65.8598 50.9456 -62.8993 51.0313 -60.0774 51.0166C-59.6919 51.0151 -60.1861 50.7814 -59.6292 50.7755C-57.0159 50.7478 -54.1515 50.7564 -51.6056 50.8658C-50.979 50.8935 -51.3718 51.0571 -51.2358 51.1057C-50.4006 51.3997 -49.2163 50.9725 -49.0209 50.9644C-44.3594 50.7591 -40.7919 51.1457 -36.0408 50.9617C-35.7822 50.9508 -33.7915 50.493 -32.9034 50.8857C-32.8426 50.9118 -31.9638 51.3136 -31.1869 51.0389C-31.1386 51.0217 -31.6862 50.8148 -30.7306 50.8359C-29.7751 50.857 -28.2373 50.7188 -26.9239 50.9461C-26.508 51.0177 -25.5252 51.4185 -24.2848 51.099C-24.204 51.0767 -22.2891 50.3543 -21.6056 50.8527C-21.4948 50.9347 -21.6108 51.4622 -20.1304 51.1918C-19.8475 51.1393 -20.361 51.0217 -19.6158 50.9482C-18.4741 50.835 -16.9613 50.9763 -15.5578 50.7413C-15.313 50.6997 -14.2711 50.3417 -13.4353 50.6134C-13.3044 50.656 -13.5531 50.8321 -13.1117 50.8518C-11.0128 50.9463 -8.8151 50.8285 -6.68403 50.9504C-5.92921 50.9932 -6.31511 51.2778 -5.52833 51.3541C-4.74132 51.4304 -3.15597 51.5037 -2.33256 51.3736C-1.50897 51.2435 -2.40866 50.7898 -1.17485 50.7535C-1.01656 50.7489 -0.858311 50.7446 -0.700104 50.7407C4.01974 50.6217 8.73798 49.3749 12.6487 46.6105C13.2375 46.1836 12.6648 46.4203 13.5025 45.7622C16.7637 43.4344 20.3198 37.5287 21.3615 34.2448C22.3088 31.6324 21.6772 35.0802 22.2837 33.023C22.5646 32.0087 22.18 30.8239 22.1874 30.5832C22.2257 29.631 22.2594 28.8009 22.2754 28C22.2965 26.7818 22.283 25.645 22.0379 24.3597C21.9509 23.9209 21.8121 24.3871 21.7383 24.0172C21.4815 22.7607 21.222 21.4305 20.7868 20.277C20.5889 19.7619 20.4719 19.9149 20.2967 19.4431C19.8647 18.3162 19.4477 17.3331 18.9698 16.2335C18.9248 16.1321 19.4797 16.66 19.0155 15.8764C18.2607 14.6161 17.2586 13.0402 15.9571 11.926C15.5673 11.5985 15.3079 11.8442 14.6934 10.9297C14.5597 10.7445 15.0821 10.5783 13.8616 10.0661C13.6564 9.95841 11.6919 9.13779 10.9788 8.35494C10.7957 8.14089 10.3656 7.47167 9.79274 7.24839C9.71543 7.22004 9.91775 7.54501 9.46226 7.33943C7.85825 6.61947 6.12455 5.97883 4.35352 5.6465C3.8813 5.56085 4.53297 5.91246 3.83438 5.78446C2.46039 5.53935 0.826476 5.34776 -0.700117 5.31615C-1.363 5.30182 -2.0046 5.2844 -2.59958 5.26601C-3.37392 5.24168 -2.83874 5.06986 -2.89503 5.05117C-3.80116 4.74704 -4.33689 5.15754 -4.63763 5.18148C-6.50804 5.3248 -7.93235 5.13197 -9.65638 5.183C-10.1322 5.19656 -9.7948 5.39229 -9.88954 5.40975C-10.8718 5.58027 -10.14 5.22877 -10.7618 5.19002C-12.5036 5.08031 -14.4453 5.09604 -16.2067 5.12105C-16.8537 5.13053 -16.1265 5.35748 -16.7072 5.36336C-20.1438 5.40247 -23.7164 5.38075 -27.0703 5.25563C-27.7018 5.23166 -27.3044 5.0569 -27.4361 5.01699C-28.3432 4.73773 -29.6727 5.11864 -29.9786 5.15493C-31.3695 5.3206 -31.9099 5.16606 -33.1382 5.1949C-39.1389 5.33852 -46.5481 5.23617 -52.2123 5.17293C-59.5934 5.09155 -65.321 4.92529 -72.3597 4.96846C-72.807 4.97099 -72.3559 5.20348 -72.7416 5.20864C-77.7204 5.26468 -82.6221 5.17384 -87.6109 5.24099C-88.0203 5.24608 -87.4302 5.46648 -88.0872 5.48207C-89.435 5.5156 -91.1423 5.50362 -92.505 5.43325C-93.1697 5.39934 -92.2782 5.21022 -92.9472 5.17995C-94.505 5.10905 -96.1749 5.09335 -97.775 5.12868C-98.456 5.1442 -97.4286 5.36961 -98.3137 5.37221C-104.343 5.39457 -110.264 5.4334 -116.357 5.1415C-116.774 5.12145 -117.141 4.66333 -118.029 4.75118C-118.096 4.87832 -118.092 5.02788 -118.121 5.16378C-126.898 5.23698 -135.585 5.07816 -144.387 5.05361C-144.758 5.05263 -144.117 5.29536 -144.835 5.2947C-148.993 5.29111 -153.031 5.35835 -157.285 5.11708C-157.707 5.09349 -157.49 4.66645 -158.734 4.73104C-158.953 4.74282 -160.826 4.79978 -161.31 4.89248C-161.376 4.90646 -161.034 5.10578 -161.638 5.11159C-165.146 5.14186 -168.821 5.09635 -172.323 4.97457C-172.888 4.95453 -172.286 4.74227 -172.689 4.72616C-175.544 4.61348 -178.649 4.77484 -181.377 4.58211C-183.204 4.45235 -182.527 4.08543 -183.498 3.72427C-183.635 3.67331 -184.766 3.66524 -184.824 3.4551C-184.975 2.9267 -184.427 2.34811 -184.652 1.78488C-184.699 1.66357 -186.213 1.79423 -185.317 1.50107C-185.254 1.48145 -184.156 1.38415 -183.886 1.2847C-183.697 1.21594 -184.037 1.00223 -183.653 0.914217C-183.269 0.826282 -182.846 1.00542 -182.21 0.90201C-181.573 0.797318 -181.853 0.554203 -180.581 0.525425ZM-90.5195 52.0972C-89.5144 52.3014 -89.366 51.5536 -90.4532 51.7325C-90.5059 51.7421 -90.5714 52.0872 -90.5195 52.0972ZM-206.748 39.8055C-206.404 41.0881 -205.492 41.5415 -205.765 40.6586C-206.015 39.7847 -206.844 39.4204 -206.748 39.8055ZM-210.041 27.1207C-210.118 27.4916 -210.104 27.7908 -210.045 28C-210.045 28 -210.045 28 -210.045 28C-209.912 28.4642 -209.576 28.4838 -209.474 28C-209.474 28 -209.474 28 -209.474 28C-209.435 27.8242 -209.426 27.5824 -209.459 27.2678C-209.469 27.1772 -210.022 27.0339 -210.041 27.1207ZM-178.998 3.62142C-179.012 3.61149 -179.824 3.60182 -179.844 3.61166C-180.277 3.84914 -178.651 3.86832 -178.998 3.62142ZM-206.322 14.5195C-206.712 14.8354 -207.255 16.1044 -206.805 15.6843C-206.455 15.3476 -205.853 14.1269 -206.322 14.5195ZM-38.0829 52.8952C-38.067 52.9064 -37.4843 52.9164 -37.496 52.8534C-37.5356 52.6506 -38.3466 52.7078 -38.0829 52.8952ZM-187.449 3.33759C-190.763 3.60205 -193.032 3.34682 -189.292 2.7175C-188.619 2.63006 -190.696 3.22693 -189.829 3.16443C-188.271 3.05743 -187.257 2.41846 -185.63 2.69951C-185.349 2.74068 -187.266 3.30837 -187.454 3.33925C-187.453 3.33869 -187.451 3.33814 -187.449 3.33759ZM-89.9407 52.9953C-89.9206 53.0052 -89.1139 53.0146 -89.0945 53.0048C-88.6577 52.7674 -90.2828 52.7484 -89.9407 52.9953ZM-4.07717 53.3576C-4.03264 53.3786 -2.16046 53.3984 -2.09941 53.3789C-1.12275 52.9908 -4.9078 52.9498 -4.07717 53.3576ZM-144.273 53.5425C-145.153 53.7813 -146.206 53.8094 -146.908 53.5096C-146.033 53.5255 -145.152 53.5278 -144.273 53.5425Z" />
</g>
</svg>
