<svg viewBox="0 0 150 54" preserveAspectRatio="none"  fill="none" xmlns="http://www.w3.org/2000/svg">
<path d="M0 28C0 14.1929 11.1929 3 25 3H123C136.807 3 148 14.1929 148 28V28C148 41.8071 136.807 53 123 53H25C11.1929 53 0 41.8071 0 28V28Z" />
<path d="M28.3632 0.525425C30.3418 0.460293 32.9354 0.529934 34.9065 0.625522C35.5242 0.655168 35.2114 0.787689 35.6379 0.81412C36.4719 0.865646 37.2489 0.800652 38.0731 0.862032C38.3462 0.883023 38.0062 1.09294 38.2926 1.11014C39.8621 1.20291 41.3469 1.14944 42.9368 1.19406C50.7682 1.41421 58.4662 1.49301 66.3934 1.58865C69.0072 1.62001 72.1846 1.81051 74.8844 1.7272C75.1995 1.71729 75.0117 1.53304 75.0716 1.51785C76.0121 1.28537 75.6994 1.65734 76.3135 1.70676C78.7507 1.90188 81.4608 1.91886 83.8064 1.84775C84.8042 1.81696 83.8037 1.45099 84.8085 1.6564C84.8783 1.67028 84.6251 1.86594 84.8987 1.88681C85.5193 1.93375 86.6967 1.89877 87.1777 1.91428C88.1046 1.94514 88.258 1.94317 89.1348 1.9454C90.3333 1.95015 91.7589 2.04741 93.0449 2.00308C93.3194 1.99304 92.956 1.79246 93.3937 1.75833C93.8319 1.72425 94.991 1.74126 95.3818 1.78854C95.7727 1.83585 95.6062 1.9935 95.6754 2.02963C96.2445 2.33462 97.5853 1.91221 97.7577 1.90176C100.903 1.72377 103.601 1.9644 106.553 1.96371C108.795 1.96268 111.191 1.88324 113.324 1.89413C115.865 1.90789 118.019 2.01658 120.487 1.99789C120.747 1.99615 120.442 1.76032 120.76 1.75772C121.508 1.75165 122.254 1.74818 123 1.74818C125.758 1.7468 128.508 2.2231 131.072 3.18861C131.402 3.31396 130.908 3.36865 131.23 3.50587C133.246 4.30742 135.941 6.21903 137.477 6.21271C138.68 7.04532 140.043 8.19962 140.851 9.23126C141.369 9.89681 140.637 9.48732 141.421 10.142C141.596 10.2926 141.53 9.93902 141.783 10.1779C142.846 11.1885 143.794 12.4825 144.678 13.6351C144.858 13.8697 144.961 13.7063 145.034 13.7595C145.647 14.2171 145.865 15.4663 145.951 15.7032C146.654 17.5268 147.264 18.7951 147.791 20.524C147.909 20.9255 147.997 20.3823 148.117 20.7695C148.736 22.7847 149.055 24.9763 149.021 27.0323C149.012 27.4889 148.796 27.0763 148.781 27.2937C148.76 27.5841 148.777 27.8054 148.81 28C148.81 28 148.81 28 148.81 28C148.884 28.4448 149.049 28.7492 148.96 29.3865C148.932 29.5806 148.765 29.4609 148.744 29.4953C148.415 30.0258 148.79 30.53 148.784 30.6756C148.712 32.4903 148.05 33.5431 147.643 35.2072C147.592 35.4077 147.937 35.0213 147.778 35.5832C146.713 39.3389 144.5 42.9845 141.731 45.6405C141.301 46.053 141.476 45.631 141.435 45.6446C140.79 45.8588 140.808 46.4272 140.677 46.5748C139.642 47.7216 138.302 48.3048 137.737 49.3103C133.372 52.1817 128.199 53.9326 123 53.7538C121.763 53.7126 120.526 53.6517 119.29 53.562C119.211 53.5568 119.353 53.3473 119.195 53.3377C117.285 53.2201 117.651 53.5457 116.388 53.9438C116.069 54.0438 115.101 53.5631 115.015 53.5279C114.703 53.398 115.027 53.0864 114.922 53.0613C114.057 52.8638 114.198 53.8944 113.031 53.8947C112.995 53.893 113.148 53.7033 113.05 53.6844C112.746 53.6252 112.444 53.7006 112.146 53.6353C111.465 53.4842 111.222 52.9834 110.181 53.2749C110.049 53.3127 110.251 53.8973 109.209 53.8697C108.793 53.8582 106.955 53.8682 106.439 53.8303C105.925 53.7925 106.278 53.6041 106.241 53.5959C104.855 53.3468 105.38 53.2436 104.686 52.8748C103.991 52.5074 104.184 53.3837 103.9 53.4815C103.617 53.579 102.6 53.3735 102.35 53.302C102.1 53.2306 102.412 53.1109 102.19 53.0704C100.717 52.8061 101.544 53.5054 101.058 53.6444C99.9146 53.9738 99.0238 53.3239 97.9767 53.2602C97.6934 53.243 97.9245 53.391 97.6723 53.4049C96.6731 53.4577 96.0721 53.255 94.9353 53.4409C94.7494 53.4712 93.8304 53.8619 93.2355 53.5752C93.1513 53.5338 93.3907 53.3719 92.9648 53.3356C92.3287 53.2812 91.1824 53.2458 90.4986 53.2999C89.9937 53.3399 90.5724 53.6068 89.9369 53.5239C89.6545 53.4869 90.1779 53.3308 89.6473 53.2743C89.1195 53.2178 87.7701 53.2246 87.2566 53.23C86.744 53.2355 87.0246 53.4379 86.9831 53.4516C86.7325 53.5297 85.7487 53.6273 85.6618 53.627C81.277 53.6518 77.2336 53.3106 72.9644 53.4235C72.6294 53.4321 72.8525 53.6455 72.8014 53.649C71.6545 53.7384 72.5588 53.1709 71.7576 52.981C71.8734 53.4141 71.4004 53.3357 70.5925 53.3832C70.2031 53.4065 70.4152 53.5742 70.3797 53.5913C69.8023 53.8461 69.4003 53.5171 69.2967 53.4497C68.9144 53.2021 68.4983 53.4947 68.2381 53.3292C67.978 53.1649 68.5765 52.9214 67.8017 52.9245C67.5844 53.0796 68.1596 53.4848 67.5713 53.5504C65.3518 53.7988 61.2085 53.4809 59.4238 53.4479C57.6428 53.4149 57.0674 53.4435 56.0296 53.3875C54.1549 53.2862 54.8419 53.5868 53.6779 53.7244C52.5104 53.862 53.0779 53.1223 52.9101 52.9633C52.7454 52.8044 52.5655 52.968 52.3606 52.8806C52.1563 52.7932 52.5985 52.6851 52.1181 52.6523C51.6375 52.6196 50.3234 52.9023 50.153 53.0686C49.7928 53.4208 50.385 53.7905 49.1132 53.6606C49.04 53.6529 49.2774 53.4584 48.9973 53.4388C46.7728 53.289 44.4617 53.2797 42.2398 53.1473C41.9344 53.1288 42.2075 52.9124 42.0297 52.8992C40.1778 52.7608 40.8398 53.1256 39.8248 53.5309C40.0527 52.9916 39.4914 52.6616 38.086 52.6584C37.241 52.6563 37.3865 52.8919 36.8401 53.0579C36.6761 53.1079 36.0783 52.9462 35.9699 53.057C35.6127 53.4191 36.1758 53.8245 34.7267 53.6631C34.6632 53.6554 34.8656 53.4572 34.6459 53.4452C33.2259 53.3666 33.056 53.7454 31.5211 53.7912C30.3179 53.8272 28.1781 53.5963 26.8082 53.5587C26.837 52.9523 25.5431 53.0912 25.0181 53.5092C25.0121 53.5091 25.006 53.509 25 53.5089C24.0954 53.4936 23.1224 53.4632 22.2651 53.3128C21.967 53.2602 22.184 53.1074 22.1482 53.0844C21.6103 52.7241 21.1777 53.067 20.9779 53.0518C18.8546 52.8592 17.2833 52.0879 15.3067 51.6112C15.238 51.5936 14.962 51.9403 14.5847 51.4376C14.5628 51.404 15.2479 51.5014 14.3878 51.0986C13.5205 50.6956 12.0679 49.6571 10.8788 49.0778C10.5905 48.9435 9.72112 48.752 9.36991 48.137C9.32404 48.0553 9.47251 48.018 9.41636 47.8887C9.23743 47.4747 8.79616 47.6652 8.67198 47.0843C8.54918 46.5012 8.02502 45.6885 6.96134 44.9207C6.92867 44.8963 6.46935 44.9016 6.19923 44.5876C5.7673 44.0895 5.23555 43.3193 4.83133 42.7669C4.63723 42.5025 4.59111 42.7949 4.55444 42.7511C3.17088 41.0008 2.53707 39.4996 1.71678 37.2836C1.56595 36.8819 0.866735 35.7876 0.85903 34.9088C0.863872 33.9515 2.05085 34.6011 1.37929 32.6679C1.13149 31.907 -0.345995 30.9867 0.238856 29.3951C0.186248 28.9276 0.15998 28.4646 0.15488 28C0.133798 25.5477 0.669698 23.2719 1.18773 20.8345C1.21461 20.7059 0.993785 20.1891 1.10234 19.8874C1.26294 19.4421 1.51357 19.2589 1.64437 18.9505C2.19991 17.6645 2.63423 16.443 3.3425 15.2803C3.61374 14.8424 3.66921 15.0859 4.00311 14.5757C4.34083 14.0715 4.37859 13.5973 4.96486 12.9967C5.41234 12.5442 6.16613 12.3582 6.74279 11.7906C6.41522 11.4595 6.78845 11.0332 7.4199 10.2319C7.542 10.0778 7.27867 10.109 7.33086 10.0299C7.54274 9.70415 7.89045 9.56232 8.09548 9.25428C8.14577 9.17947 8.0424 9.05786 8.07833 8.98972C8.38019 8.39843 9.40234 8.03954 9.5754 7.98982C10.2422 7.7778 10.3682 7.43489 10.8386 7.22442C11.3067 7.02068 10.7518 7.53533 11.2671 7.25787C12.3323 6.68406 13.6666 5.91416 14.7849 5.42257C15.2299 5.22552 14.8407 5.16631 14.9023 5.13359C15.8135 4.66873 16.849 4.54253 17.2577 3.96739C18.2581 4.80936 17.8064 3.66054 19.2906 3.52245C19.4082 3.51391 19.659 3.98706 19.2585 4.15969C18.8617 4.332 18.1835 4.34529 17.6501 4.63868C17.5179 4.70569 16.9169 5.42337 16.8311 5.48953C16.1235 5.99612 15.727 5.33432 15.6656 5.31071C15.0011 5.08118 14.3068 5.98411 14.099 6.1337C13.1155 6.81187 12.1983 7.23663 11.4434 7.88749C10.9518 8.31628 11.2008 8.76624 10.7952 9.04755C9.47417 9.99957 8.53814 9.88985 7.86651 11.4391C7.73133 11.7757 8.35338 11.8986 7.24177 12.4872C7.17293 12.5197 6.28708 12.9446 6.17476 13.512C6.16071 13.5825 6.2903 13.6793 6.25011 13.7544C5.98096 14.2561 5.65719 14.4867 5.36745 15.0329C5.07898 15.5791 4.77778 16.2516 4.39755 16.8387C4.16818 17.1892 3.65643 17.5407 3.50134 17.6957C3.05671 18.1278 3.13189 18.8401 2.76174 19.0737C2.38688 19.3205 2.28398 18.4945 1.77588 19.3526C2.15691 19.5337 2.53309 19.7604 2.91144 19.9568C2.19978 21.8679 1.62352 23.8339 1.45965 25.8951C1.44071 26.1498 1.68728 25.9091 1.6743 26.1808C1.6458 26.8146 1.58486 27.3944 1.5553 28C1.5553 28 1.5553 28 1.5553 28C1.53166 28.4941 1.52934 28.9888 1.59236 29.5246C1.70103 30.4452 2.06209 31.4138 2.29917 32.3341C1.9269 32.9973 2.41693 34.3705 2.70985 35.3628C2.81087 35.7131 2.68252 35.7317 2.73018 35.9915C2.9276 36.9717 3.16638 36.3849 3.32406 36.6097C4.02081 37.5474 3.1739 38.0328 3.83576 39.2624C3.86932 39.3321 4.75143 39.8564 4.8416 39.9369C5.41608 40.4845 4.75242 40.1387 4.97504 40.5702C5.39 41.3515 5.64564 41.9391 6.40613 42.6674C6.63007 42.8819 7.32965 43.2293 7.5391 43.8247C7.56699 43.9035 7.41294 43.986 7.44779 44.0389C8.10239 44.9841 8.51571 44.6229 9.094 44.9289C9.6709 45.2317 10.1783 46.1354 10.2752 46.3444C10.5173 46.8891 9.88495 46.1817 9.8485 46.1812C9.38318 46.2078 9.9764 46.641 10.4069 47.0028C10.1502 47.4683 10.8168 47.9203 10.8574 47.3731C10.8608 47.3138 10.4814 47.0916 10.4069 47.0028C11.1128 46.8998 11.8065 47.3293 12.3551 48.2367C12.6185 48.6572 12.1091 48.6814 13.3525 49.2744C13.9208 49.5319 13.8769 49.1018 14.4012 49.2586C15.5886 49.6104 16.9408 50.5096 18.1859 50.8185C18.6328 50.9294 18.2581 50.6155 18.5639 50.6827C19.3738 50.8553 20.0552 51.1626 20.8886 51.2335C20.9639 51.2394 20.8191 51.0054 21.0725 51.0463C22.4251 51.2557 23.664 51.4161 25 51.4568C25.5942 51.4729 26.2037 51.4852 26.8446 51.4862C27.8936 51.4879 29.769 51.3743 30.8557 51.3971C32.7391 51.4355 35.056 51.7351 36.665 51.6623C37.7143 51.6157 37.4841 51.4097 37.9338 51.2693C38.8014 50.9971 40.3373 51.4846 40.5441 51.5601C40.5504 51.5626 39.6474 51.6112 40.1292 51.717C40.4094 51.9374 40.5339 51.5611 40.5441 51.5601C40.6799 51.6089 42.4837 51.6556 42.8419 51.6163C43.0366 51.5947 42.9277 51.3995 43.0291 51.3919C45.4412 51.2172 47.8575 51.1676 50.3038 51.2589C50.3469 51.2628 50.2821 51.4812 50.3833 51.4878C51.7996 51.5849 52.7065 51.3177 53.8745 51.1591C55.0424 51.0006 55.9686 51.0537 56.66 51.4286C57.5412 51.3814 58.8054 51.5471 59.5329 51.6477C60.2604 51.7483 60.362 51.3231 60.4259 51.3147C62.4225 51.0457 63.5766 51.2891 65.6479 51.3269C66.6327 51.3457 68.5861 51.284 69.6523 51.2375C70.495 51.2001 71.0027 51.2997 71.7791 51.236C71.8842 51.2275 71.778 51.0382 71.8101 51.0309C72.6766 50.8045 72.2602 51.2672 72.4391 51.3498C73.0878 51.6504 73.4885 51.8104 74.5982 51.669C74.8542 51.6367 75.5998 50.9704 76.0664 50.9314C76.673 50.882 76.444 51.1208 77.0792 51.063C77.1336 51.0582 77.1223 50.9109 77.5143 50.9174C79.334 50.9456 81.318 51.0313 83.2091 51.0166C83.4674 51.0151 83.1362 50.7814 83.5094 50.7755C85.2607 50.7478 87.1802 50.7564 88.8863 50.8658C89.3063 50.8935 89.043 51.0571 89.1342 51.1057C89.6938 51.3997 90.4875 50.9725 90.6185 50.9644C93.7423 50.7591 96.133 51.1457 99.3169 50.9617C99.4902 50.9508 100.824 50.493 101.419 50.8857C101.46 50.9118 102.049 51.3136 102.57 51.0389C102.602 51.0217 102.235 50.8148 102.875 50.8359C103.516 50.857 104.546 50.7188 105.426 50.9461C105.705 51.0177 106.364 51.4185 107.195 51.099C107.249 51.0767 108.532 50.3543 108.99 50.8527C109.065 50.9347 108.987 51.4622 109.979 51.1918C110.169 51.1393 109.825 51.0217 110.324 50.9482C111.089 50.835 112.103 50.9763 113.043 50.7413C113.207 50.6997 113.906 50.3417 114.466 50.6134C114.553 50.656 114.387 50.8321 114.683 50.8518C116.089 50.9463 117.562 50.8285 118.99 50.9504C119.496 50.9932 119.237 51.2778 119.764 51.3541C120.292 51.4304 121.354 51.5037 121.906 51.3736C122.458 51.2435 121.855 50.7898 122.682 50.7535C122.788 50.7489 122.894 50.7446 123 50.7407C126.163 50.6131 129.332 50.208 132.278 48.9443C132.724 48.7483 132.292 48.7723 132.934 48.4629C135.368 47.3827 138.816 44.4155 140.489 42.8177C141.878 41.5565 140.563 43.5133 141.55 42.4629C142.028 41.9416 142.022 41.0203 142.097 40.8771C142.847 39.4496 143.578 38.5772 144.105 37.2185C144.21 36.938 143.898 37.1221 143.988 36.8857C144.289 36.082 144.683 35.2598 144.898 34.4633C144.993 34.106 144.817 34.1277 144.917 33.8045C145.15 33.0307 145.363 32.347 145.639 31.5827C145.664 31.512 145.788 32.0329 145.889 31.4302C146.048 30.4598 146.303 29.2332 146.148 28.0876C146.144 28.0558 146.137 28.0269 146.127 28C146.035 27.7381 145.756 27.6735 145.965 27.0154C146.01 26.8639 146.477 27.0307 146.032 26.2092C145.965 26.062 145.304 24.7421 145.505 24.0169C145.562 23.8246 145.836 23.2951 145.689 22.9058C145.668 22.8544 145.521 23.1119 145.427 22.7902C145.099 21.6587 144.749 20.4748 144.236 19.3803C144.098 19.0904 144.089 19.6085 143.889 19.1782C143.34 17.9945 142.614 16.5387 141.952 15.4389C141.709 15.0335 142.033 15.2078 142.03 15.1691C141.966 14.5329 141.431 14.5038 141.304 14.3728C140.505 13.5472 140.083 12.7662 139.308 12.0417C139.094 11.8438 139.1 12.1286 139.047 12.0996C138.505 11.801 139.068 11.8634 138.823 11.5703C138.132 10.7496 137.199 9.99159 136.305 9.38522C135.976 9.16356 136.208 9.60511 135.916 9.40698C134.183 8.2439 132.254 7.24805 130.361 6.47271C130.005 6.32698 130.289 6.23859 130.225 6.17508C129.777 5.72853 128.876 5.876 128.688 5.86824C127.827 5.82388 127.537 5.60881 126.791 5.50821C125.602 5.35635 124.316 5.26181 123 5.26685C120.029 5.27581 116.944 5.21551 114.388 5.17293C109.442 5.09155 105.604 4.92529 100.887 4.96846C100.587 4.97099 100.889 5.20348 100.631 5.20864C97.2942 5.26468 94.0094 5.17384 90.6662 5.24099C90.3919 5.24608 90.7873 5.46648 90.347 5.48207C89.4438 5.5156 88.2997 5.50362 87.3865 5.43325C86.9411 5.39934 87.5385 5.21022 87.0901 5.17995C86.0462 5.10905 84.9272 5.09335 83.8548 5.12868C83.3985 5.1442 84.087 5.36961 83.4939 5.37221C79.4536 5.39457 75.4855 5.4334 71.4026 5.1415C71.1227 5.12145 70.8771 4.66333 70.282 4.75118C70.2371 4.87832 70.2396 5.02788 70.22 5.16378C64.3383 5.23698 58.5167 5.07816 52.6185 5.05361C52.3698 5.05263 52.7996 5.29536 52.3181 5.2947C49.5315 5.29111 46.8256 5.35835 43.9753 5.11708C43.6925 5.09349 43.8376 4.66645 43.0042 4.73104C42.8572 4.74282 41.6019 4.79978 41.2774 4.89248C41.2333 4.90646 41.4623 5.10578 41.0579 5.11159C38.7073 5.14186 36.2441 5.09635 33.8976 4.97457C33.5189 4.95453 33.9222 4.74227 33.6525 4.72616C31.7392 4.61348 29.658 4.77484 27.8298 4.58211C26.606 4.45235 27.0591 4.08543 26.4088 3.72427C26.3168 3.67331 25.559 3.66524 25.5198 3.4551C25.4192 2.9267 25.7863 2.34811 25.6357 1.78488C25.6038 1.66357 24.5889 1.79423 25.1898 1.50107C25.2318 1.48145 25.9676 1.38415 26.1488 1.2847C26.275 1.21594 26.0476 1.00223 26.3051 0.914217C26.5625 0.826282 26.8454 1.00542 27.2722 0.90201C27.6988 0.797318 27.5112 0.554203 28.3632 0.525425ZM62.8086 52.0972C63.4823 52.3014 63.5817 51.5536 62.8531 51.7325C62.8178 51.7421 62.7739 52.0872 62.8086 52.0972ZM1.15896 23.7349C0.684598 24.5306 1.10356 25.1723 1.43288 24.6174C1.76657 24.0751 1.30416 23.4997 1.15896 23.7349ZM4.04777 15.3791C3.30839 16.1221 4.16514 16.7669 4.50569 15.7546C4.52633 15.6965 4.09102 15.3368 4.04777 15.3791ZM29.4245 3.62142C29.4152 3.61149 28.8705 3.60182 28.8575 3.61166C28.5674 3.84914 29.6567 3.86832 29.4245 3.62142ZM9.72498 8.56505C9.38201 8.6463 8.78787 9.36603 9.20482 9.24743C9.53385 9.15135 10.1436 8.46298 9.72498 8.56505ZM97.9484 52.8952C97.959 52.9064 98.3495 52.9164 98.3417 52.8534C98.3152 52.6506 97.7717 52.7078 97.9484 52.8952ZM23.7615 3.30003C21.5341 3.39658 19.9896 2.79929 22.5212 2.57136C22.9757 2.542 21.5727 2.95394 22.1583 2.96941C23.2105 3.00082 23.8865 2.41102 24.9801 2.6995C25.1691 2.74767 23.8803 3.28943 23.7575 3.30144C23.7588 3.30097 23.7602 3.3005 23.7615 3.30003ZM63.1966 52.9953C63.21 53.0052 63.7506 53.0146 63.7636 53.0048C64.0564 52.7674 62.9673 52.7484 63.1966 52.9953ZM120.737 53.3576C120.767 53.3786 122.021 53.3984 122.062 53.3789C122.717 52.9908 120.18 52.9498 120.737 53.3576ZM26.7867 53.5425C26.1967 53.7813 25.4911 53.8094 25.0209 53.5096C25.6071 53.5255 26.1972 53.5278 26.7867 53.5425Z" />
</svg>
