<svg viewBox="0 0 27 55" fill="none" preserveAspectRatio="none" xmlns="http://www.w3.org/2000/svg">
<mask id="mask0_1469_4983" style="mask-type:alpha" maskUnits="userSpaceOnUse" x="0" y="0" width="27" height="55">
<rect width="27" height="55" />
</mask>
<g mask="url(#mask0_1469_4983)">
<path d="M0 28C0 14.1929 11.1929 3 25 3H209.9C223.707 3 234.9 14.1929 234.9 28V28C234.9 41.8071 223.707 53 209.9 53H25C11.1929 53 0 41.8071 0 28V28Z" />
<path d="M30.0186 0.525425C32.9711 0.460293 36.8414 0.529934 39.7828 0.625522C40.7046 0.655168 40.2378 0.787689 40.8742 0.81412C42.1187 0.865646 43.2782 0.800652 44.5081 0.862032C44.9157 0.883023 44.4083 1.09294 44.8357 1.11014C47.1777 1.20291 49.3934 1.14944 51.7659 1.19406C63.4521 1.41421 74.9394 1.49301 86.7685 1.58865C90.6689 1.62001 95.4104 1.81051 99.439 1.7272C99.9093 1.71729 99.629 1.53304 99.7184 1.51785C101.122 1.28537 100.655 1.65734 101.572 1.70676C105.208 1.90188 109.253 1.91886 112.753 1.84775C114.242 1.81696 112.749 1.45099 114.248 1.6564C114.352 1.67028 113.974 1.86594 114.383 1.88681C115.309 1.93375 117.066 1.89877 117.784 1.91428C119.167 1.94514 119.396 1.94317 120.704 1.9454C122.492 1.95015 124.62 2.04741 126.539 2.00308C126.948 1.99304 126.406 1.79246 127.059 1.75833C127.713 1.72425 129.443 1.74126 130.026 1.78854C130.609 1.83585 130.361 1.9935 130.464 2.02963C131.313 2.33462 133.314 1.91221 133.571 1.90176C138.265 1.72377 142.29 1.9644 146.696 1.96371C150.041 1.96268 153.617 1.88324 156.8 1.89413C160.592 1.90789 163.805 2.01658 167.489 1.99789C167.877 1.99615 167.422 1.76032 167.897 1.75772C172.941 1.73028 177.95 1.75599 182.973 1.91519C183.477 1.93136 182.828 2.13842 183.331 2.16696C186.412 2.33712 191.287 2.74589 193.117 1.84439C195.204 1.87959 197.738 1.91596 199.605 2.09769C200.809 2.21464 199.64 2.44021 201.119 2.34396C201.452 2.32252 201.018 2.12498 201.519 2.10776C203.624 2.03544 205.925 2.09965 208.009 1.99759C208.432 1.97636 208.317 1.79936 208.437 1.76749C208.856 1.6602 209.391 1.67122 209.9 1.72296C210.657 1.79459 211.333 1.98634 211.557 2.01898C214.427 2.45633 216.507 2.8387 219.036 3.77134C219.619 3.99715 219.014 3.50708 219.58 3.72151C222.519 4.84813 225.316 6.65133 227.5 8.80966C227.983 9.2914 227.387 9.01234 227.608 9.24984C228.562 10.3034 229.058 10.2758 229.891 11.3807C230.063 11.6152 229.825 11.5992 229.844 11.6521C230.13 12.4709 230.881 12.7901 231.015 12.9614C232.664 15.1082 233.072 16.8585 234.031 19.228C234.142 19.5158 234.116 18.7829 234.414 19.6024C235.352 22.2434 235.839 25.1236 235.809 28C235.809 28 235.809 28 235.809 28C235.786 31.0979 235.158 34.1753 234.041 36.9234C233.7 37.746 233.772 37.0922 233.733 37.1382C233.114 37.8612 233.259 38.553 233.151 38.826C232.286 40.9607 230.805 42.5231 230.239 44.0482C225.329 50.1162 217.675 53.9705 209.9 53.7538C208.053 53.7126 206.208 53.6517 204.364 53.562C204.246 53.5568 204.458 53.3473 204.222 53.3377C201.371 53.2201 201.919 53.5457 200.033 53.9438C199.558 54.0438 198.113 53.5631 197.985 53.5279C197.519 53.398 198.002 53.0864 197.846 53.0613C196.555 52.8638 196.766 53.8944 195.024 53.8947C194.97 53.893 195.198 53.7033 195.052 53.6844C194.598 53.6252 194.148 53.7006 193.704 53.6353C192.687 53.4842 192.325 52.9834 190.771 53.2749C190.575 53.3127 190.875 53.8973 189.32 53.8697C188.7 53.8582 185.957 53.8682 185.188 53.8303C184.42 53.7925 184.947 53.6041 184.892 53.5959C182.823 53.3468 183.608 53.2436 182.571 52.8748C181.534 52.5074 181.822 53.3837 181.399 53.4815C180.976 53.579 179.458 53.3735 179.086 53.302C178.713 53.2306 179.178 53.1109 178.846 53.0704C176.649 52.8061 177.882 53.5054 177.158 53.6444C175.451 53.9738 174.122 53.3239 172.559 53.2602C172.137 53.243 172.482 53.391 172.105 53.4049C170.614 53.4577 169.717 53.255 168.021 53.4409C167.744 53.4712 166.372 53.8619 165.485 53.5752C165.359 53.5338 165.716 53.3719 165.081 53.3356C164.131 53.2812 162.421 53.2458 161.4 53.2999C160.647 53.3399 161.511 53.6068 160.562 53.5239C160.141 53.4869 160.922 53.3308 160.13 53.2743C159.343 53.2178 157.329 53.2246 156.562 53.23C155.798 53.2355 156.216 53.4379 156.154 53.4516C155.78 53.5297 154.312 53.6273 154.183 53.627C147.64 53.6518 141.606 53.3106 135.235 53.4235C134.735 53.4321 135.068 53.6455 134.992 53.649C133.281 53.7384 134.63 53.1709 133.434 52.981C133.607 53.4141 132.901 53.3357 131.696 53.3832C131.115 53.4065 131.431 53.5742 131.378 53.5913C130.517 53.8461 129.917 53.5171 129.762 53.4497C129.192 53.2021 128.571 53.4947 128.183 53.3292C127.794 53.1649 128.688 52.9214 127.531 52.9245C127.207 53.0796 128.065 53.4848 127.188 53.5504C123.875 53.7988 117.693 53.4809 115.03 53.4479C112.372 53.4149 111.513 53.4435 109.965 53.3875C107.167 53.2862 108.192 53.5868 106.455 53.7244C104.713 53.862 105.56 53.1223 105.31 52.9633C105.064 52.8044 104.795 52.968 104.49 52.8806C104.185 52.7932 104.845 52.6851 104.128 52.6523C103.411 52.6196 101.45 52.9023 101.195 53.0686C100.658 53.4208 101.542 53.7905 99.6437 53.6606C99.5346 53.6529 99.8888 53.4584 99.4709 53.4388C96.1513 53.289 92.7027 53.2797 89.3871 53.1473C88.9313 53.1288 89.3389 52.9124 89.0736 52.8992C86.3102 52.7608 87.298 53.1256 85.7834 53.5309C86.1235 52.9916 85.2859 52.6616 83.1886 52.6584C81.9278 52.6563 82.1449 52.8919 81.3294 53.0579C81.0848 53.1079 80.1926 52.9462 80.031 53.057C79.4979 53.4191 80.3382 53.8245 78.1759 53.6631C78.081 53.6554 78.3831 53.4572 78.0553 53.4452C75.9363 53.3666 75.6827 53.7454 73.3923 53.7912C71.5969 53.8272 68.4038 53.5963 66.3596 53.5587C66.4026 52.9523 64.4717 53.0912 63.6884 53.5092C62.3617 53.4921 60.9287 53.5158 59.6465 53.458C59.2051 53.4383 59.4951 53.2627 59.4394 53.2437C58.5861 52.9462 58.0093 53.3529 57.723 53.3689C54.6193 53.5239 52.0906 53.2156 49.1286 53.5169C49.0235 53.5277 48.8531 53.9489 48.0613 53.6414C48.0101 53.6202 48.9883 53.4285 47.595 53.4137C46.2014 53.3989 43.5743 53.1731 41.6396 53.3683C41.1715 53.4152 39.9872 53.7572 39.0368 53.49C38.9102 53.4537 39.0487 53.3329 38.8659 53.2657C38.2751 53.0515 37.9525 53.4773 37.258 53.1156C36.5635 52.7539 35.119 52.483 33.1678 52.7326C33.1057 52.7398 32.6438 53.0773 32.0302 53.0719C31.0507 53.0631 29.6602 52.9928 28.6375 52.995C28.1478 52.9962 28.4612 53.2057 28.3762 53.2096C27.1567 53.2531 26.0675 53.2548 25 53.2357C23.1684 53.1957 21.4054 52.9464 19.2487 52.396C18.6272 52.2492 16.7302 52.0015 15.6454 51.3028C14.4847 50.5214 16.1235 50.2284 13.3189 49.054C12.2365 48.5603 10.0861 48.7748 8.76571 46.7481C5.31691 43.9503 3.22338 40.2855 1.53221 36.2246C1.45612 36.0439 0.907727 35.5531 0.780622 35.0936C0.591888 34.4121 0.666555 33.9955 0.566606 33.5066C0.194045 31.6184 -0.11016 29.8546 -0.114916 28C-0.114916 28 -0.114916 28 -0.114916 28C-0.115067 27.8385 -0.112808 27.6769 -0.107934 27.5151C-0.0775589 26.7459 0.0827426 27.024 0.151867 26.114C0.234936 25.2146 0.0673133 24.574 0.398838 23.3698C0.657875 22.4627 1.32793 21.673 1.74523 20.5434C1.31928 20.3598 1.55736 19.547 2.03803 18.1089C2.13222 17.832 1.85825 18.054 1.89546 17.9193C2.04583 17.3664 2.39278 16.9532 2.55721 16.4354C2.59775 16.3095 2.45928 16.2301 2.48566 16.1223C2.69838 15.1896 3.81869 14.0924 4.01675 13.9253C4.76495 13.2464 4.87486 12.7634 5.41879 12.2307C5.96506 11.7103 5.34669 12.6465 5.94434 12.0123C7.17921 10.7018 8.84214 9.1024 10.3231 8.03866C10.9117 7.6138 10.3869 7.73147 10.4682 7.66665C11.6726 6.73081 13.114 6.18641 13.6773 5.43363C15.1061 5.97033 14.4355 4.88966 16.5727 4.319C16.7426 4.27865 17.1085 4.69629 16.532 4.98541C15.9567 5.27571 14.9909 5.4983 14.2422 6.00023C14.0553 6.11396 13.231 7.10427 13.1146 7.21378C12.1504 8.0432 11.5936 7.51454 11.5078 7.51318C10.5912 7.55229 9.7084 8.88625 9.44845 9.16172C8.19385 10.4178 7.07596 11.4268 6.22838 12.6431C5.68216 13.4435 6.03912 13.8245 5.59814 14.4143C4.19722 16.3976 3.13804 16.9028 2.80735 19.3038C2.75836 19.823 3.41533 19.5294 2.45579 21.0677C2.39286 21.1562 1.64191 22.3342 1.74251 23.1461C1.7542 23.2471 1.91332 23.2759 1.90221 23.4012C1.82957 24.2408 1.6172 24.7752 1.58559 25.6968C1.56456 26.3935 1.58517 27.1951 1.58984 28C1.58984 28 1.58984 28 1.58984 28C1.59112 28.2542 1.59048 28.5074 1.58525 28.7571C1.56876 29.3794 1.33651 30.2159 1.29764 30.5281C1.17514 31.4183 1.67748 32.2767 1.53407 32.8465C1.39786 33.4371 0.771556 32.4572 0.937468 33.9232C1.35864 33.8762 1.80669 33.8898 2.23664 33.8644C2.98017 36.8187 4.18536 39.6531 6.04652 42.1189C6.2785 42.4223 6.22328 41.976 6.477 42.2932C7.55304 43.6168 8.4757 44.8228 9.87637 45.9304C10.9632 46.7849 12.3327 47.4547 13.5926 48.0991C14.1016 48.9633 16.1195 49.7643 17.5793 50.2709C18.0918 50.4546 18.0194 50.5641 18.3807 50.7152C19.7621 51.2559 19.2016 50.655 19.6033 50.6893C21.3163 50.7662 21.2959 51.7592 23.3737 51.9151C23.4902 51.9305 24.7982 51.4776 25 51.4251C25.0027 51.4245 25.0052 51.4241 25.0076 51.4237C26.2293 51.2155 25.2098 51.6022 25.9744 51.6401C27.3703 51.7093 28.3403 51.8318 29.9781 51.6816C30.4556 51.6371 31.6013 51.3175 32.5287 51.5647C32.6507 51.597 32.5833 51.7665 32.6814 51.7765C34.459 51.9419 34.5057 51.4094 35.5215 51.229C36.5374 51.0487 38.1065 51.4163 38.4258 51.5223C39.2612 51.7964 37.7856 51.6394 37.7404 51.6663C37.209 51.9864 38.3533 51.9313 39.2277 51.9584C39.3543 52.4805 40.5772 52.4492 40.1342 51.9843C40.0838 51.9335 39.4033 51.9822 39.2277 51.9584C39.9953 51.446 41.3392 51.3804 42.8235 51.8592C43.5183 52.0836 42.8615 52.3452 44.9721 52.2495C45.9299 52.2063 45.5598 51.8467 46.4051 51.7487C48.3364 51.525 50.8459 51.8604 52.8369 51.8076C53.5595 51.7884 52.8555 51.5916 53.3494 51.5717C54.66 51.5183 55.8158 51.666 57.132 51.5903C57.2513 51.5832 56.9599 51.3772 57.3692 51.3746C60.4722 51.3506 63.1741 51.4826 66.4138 51.4862C67.9792 51.4879 70.7778 51.3743 72.3994 51.3971C75.2098 51.4355 78.6672 51.7351 81.0681 51.6623C82.634 51.6157 82.2905 51.4097 82.9615 51.2693C84.2562 50.9971 86.5481 51.4846 86.8567 51.5601C86.8661 51.5626 85.5186 51.6112 86.2376 51.717C86.6556 51.9374 86.8415 51.5611 86.8567 51.5601C87.0593 51.6089 89.7511 51.6556 90.2856 51.6163C90.576 51.5947 90.4135 51.3995 90.565 51.3919C94.1643 51.2172 97.7699 51.1676 101.421 51.2589C101.485 51.2628 101.388 51.4812 101.539 51.4878C103.653 51.5849 105.006 51.3177 106.749 51.1591C108.492 51.0006 109.874 51.0537 110.905 51.4286C112.22 51.3814 114.107 51.5471 115.192 51.6477C116.278 51.7483 116.429 51.3231 116.525 51.3147C119.504 51.0457 121.227 51.2891 124.317 51.3269C125.787 51.3457 128.702 51.284 130.293 51.2375C131.55 51.2001 132.308 51.2997 133.467 51.236C133.623 51.2275 133.465 51.0382 133.513 51.0309C134.806 50.8045 134.184 51.2672 134.451 51.3498C135.419 51.6504 136.017 51.8104 137.673 51.669C138.055 51.6367 139.168 50.9704 139.864 50.9314C140.769 50.882 140.428 51.1208 141.376 51.063C141.457 51.0582 141.44 50.9109 142.025 50.9174C144.74 50.9456 147.701 51.0313 150.523 51.0166C150.908 51.0151 150.414 50.7814 150.971 50.7755C153.584 50.7478 156.449 50.7564 158.994 50.8658C159.621 50.8935 159.228 51.0571 159.364 51.1057C160.199 51.3997 161.384 50.9725 161.579 50.9644C166.241 50.7591 169.808 51.1457 174.559 50.9617C174.818 50.9508 176.809 50.493 177.697 50.8857C177.758 50.9118 178.636 51.3136 179.413 51.0389C179.461 51.0217 178.914 50.8148 179.869 50.8359C180.825 50.857 182.363 50.7188 183.676 50.9461C184.092 51.0177 185.075 51.4185 186.315 51.099C186.396 51.0767 188.311 50.3543 188.994 50.8527C189.105 50.9347 188.989 51.4622 190.47 51.1918C190.753 51.1393 190.239 51.0217 190.984 50.9482C192.126 50.835 193.639 50.9763 195.042 50.7413C195.287 50.6997 196.329 50.3417 197.165 50.6134C197.296 50.656 197.047 50.8321 197.488 50.8518C199.587 50.9463 201.785 50.8285 203.916 50.9504C204.671 50.9932 204.285 51.2778 205.072 51.3541C205.859 51.4304 207.444 51.5037 208.268 51.3736C209.091 51.2435 208.191 50.7898 209.425 50.7535C209.584 50.7489 209.742 50.7446 209.9 50.7407C214.62 50.6217 219.338 49.3749 223.249 46.6105C223.838 46.1836 223.265 46.4203 224.103 45.7622C227.364 43.4344 230.92 37.5287 231.962 34.2448C232.909 31.6324 232.277 35.0802 232.884 33.023C233.165 32.0087 232.78 30.8239 232.788 30.5832C232.826 29.631 232.859 28.8009 232.876 28C232.897 26.7818 232.883 25.645 232.638 24.3597C232.551 23.9209 232.412 24.3871 232.338 24.0172C232.082 22.7607 231.822 21.4305 231.387 20.277C231.189 19.7619 231.072 19.9149 230.897 19.4431C230.465 18.3162 230.048 17.3331 229.57 16.2335C229.525 16.1321 230.08 16.66 229.616 15.8764C228.861 14.6161 227.859 13.0402 226.557 11.926C226.167 11.5985 225.908 11.8442 225.293 10.9297C225.16 10.7445 225.682 10.5783 224.462 10.0661C224.257 9.95841 222.292 9.13779 221.579 8.35494C221.396 8.14089 220.966 7.47167 220.393 7.24839C220.316 7.22004 220.518 7.54501 220.062 7.33943C218.458 6.61947 216.725 5.97883 214.954 5.6465C214.481 5.56085 215.133 5.91246 214.434 5.78446C213.06 5.53935 211.427 5.34776 209.9 5.31615C209.237 5.30182 208.595 5.2844 208.001 5.26601C207.226 5.24168 207.761 5.06986 207.705 5.05117C206.799 4.74704 206.263 5.15754 205.962 5.18148C204.092 5.3248 202.668 5.13197 200.944 5.183C200.468 5.19656 200.805 5.39229 200.711 5.40975C199.728 5.58027 200.46 5.22877 199.838 5.19002C198.097 5.08031 196.155 5.09604 194.393 5.12105C193.746 5.13053 194.474 5.35748 193.893 5.36336C190.456 5.40247 186.884 5.38075 183.53 5.25563C182.898 5.23166 183.296 5.0569 183.164 5.01699C182.257 4.73773 180.927 5.11864 180.621 5.15493C179.231 5.3206 178.69 5.16606 177.462 5.1949C171.461 5.33852 164.052 5.23617 158.388 5.17293C151.007 5.09155 145.279 4.92529 138.24 4.96846C137.793 4.97099 138.244 5.20348 137.859 5.20864C132.88 5.26468 127.978 5.17384 122.989 5.24099C122.58 5.24608 123.17 5.46648 122.513 5.48207C121.165 5.5156 119.458 5.50362 118.095 5.43325C117.43 5.39934 118.322 5.21022 117.653 5.17995C116.095 5.10905 114.425 5.09335 112.825 5.12868C112.144 5.1442 113.171 5.36961 112.286 5.37221C106.257 5.39457 100.336 5.4334 94.2434 5.1415C93.8257 5.12145 93.4592 4.66333 92.5712 4.75118C92.5043 4.87832 92.5079 5.02788 92.4787 5.16378C83.7019 5.23698 75.0146 5.07816 66.2132 5.05361C65.8421 5.05263 66.4834 5.29536 65.7649 5.2947C61.6068 5.29111 57.5689 5.35835 53.3155 5.11708C52.8935 5.09349 53.11 4.66645 51.8664 4.73104C51.647 4.74282 49.774 4.79978 49.2897 4.89248C49.2239 4.90646 49.5656 5.10578 48.9621 5.11159C45.4545 5.14186 41.7788 5.09635 38.2774 4.97457C37.7122 4.95453 38.314 4.74227 37.9115 4.72616C35.0564 4.61348 31.9509 4.77484 29.2227 4.58211C27.3965 4.45235 28.0726 4.08543 27.1022 3.72427C26.965 3.67331 25.8342 3.66524 25.7757 3.4551C25.6256 2.9267 26.1733 2.34811 25.9485 1.78488C25.9011 1.66357 24.3866 1.79423 25.2833 1.50107C25.3459 1.48145 26.4439 1.38415 26.7143 1.2847C26.9026 1.21594 26.5633 1.00223 26.9475 0.914217C27.3316 0.826282 27.7537 1.00542 28.3906 0.90201C29.0272 0.797318 28.7473 0.554203 30.0186 0.525425ZM120.081 52.0972C121.086 52.3014 121.234 51.5536 120.147 51.7325C120.094 51.7421 120.029 52.0872 120.081 52.0972ZM3.85223 39.8055C4.19655 41.0881 5.10767 41.5415 4.83525 40.6586C4.58507 39.7847 3.75606 39.4204 3.85223 39.8055ZM0.559416 27.1207C0.481601 27.4916 0.496305 27.7908 0.555096 28C0.555096 28 0.555096 28 0.555096 28C0.687897 28.4642 1.02368 28.4838 1.12644 28C1.12644 28 1.12644 28 1.12644 28C1.16469 27.8242 1.17427 27.5824 1.14085 27.2678C1.13139 27.1772 0.577689 27.0339 0.559416 27.1207ZM31.6024 3.62142C31.5886 3.61149 30.7757 3.60182 30.7563 3.61166C30.3234 3.84914 31.9488 3.86832 31.6024 3.62142ZM4.27777 14.5195C3.88769 14.8354 3.34493 16.1044 3.79517 15.6843C4.14466 15.3476 4.7474 14.1269 4.27777 14.5195ZM172.517 52.8952C172.533 52.9064 173.116 52.9164 173.104 52.8534C173.065 52.6506 172.254 52.7078 172.517 52.8952ZM23.1515 3.33759C19.8373 3.60205 17.568 3.34682 21.3079 2.7175C21.9815 2.63006 19.9037 3.22693 20.7707 3.16443C22.3292 3.05743 23.343 2.41846 24.9703 2.69951C25.2509 2.74068 23.3339 3.30837 23.1456 3.33925C23.1476 3.33869 23.1495 3.33814 23.1515 3.33759ZM120.659 52.9953C120.68 53.0052 121.486 53.0146 121.506 53.0048C121.942 52.7674 120.317 52.7484 120.659 52.9953ZM206.523 53.3576C206.567 53.3786 208.44 53.3984 208.501 53.3789C209.477 52.9908 205.692 52.9498 206.523 53.3576ZM66.3274 53.5425C65.4471 53.7813 64.3941 53.8094 63.6924 53.5096C64.5672 53.5255 65.4478 53.5278 66.3274 53.5425Z" />
</g>
</svg>
