<svg preserveAspectRatio="none" viewBox="0 0 115 55" fill="none" xmlns="http://www.w3.org/2000/svg">
<mask id="mask0_1469_4987" style="mask-type:alpha" maskUnits="userSpaceOnUse" x="0" y="0" width="115" height="55">
<rect width="115" height="55" />
</mask>
<g mask="url(#mask0_1469_4987)">
<path d="M-25.5349 28C-25.5349 14.1929 -14.342 3 -0.534911 3H114.023C127.83 3 139.023 14.1929 139.023 28V28C139.023 41.8071 127.83 53 114.023 53H-0.534903C-14.342 53 -25.5349 41.8071 -25.5349 28V28Z" />
<path d="M3.14369 0.525425C5.30786 0.460293 8.14473 0.529934 10.3007 0.625522C10.9764 0.655168 10.6343 0.787689 11.1007 0.81412C12.0129 0.865646 12.8628 0.800652 13.7643 0.862032C14.0631 0.883023 13.6912 1.09294 14.0045 1.11014C15.7212 1.20291 17.3452 1.14944 19.0842 1.19406C27.6501 1.41421 36.0701 1.49301 44.7408 1.58865C47.5998 1.62001 51.0752 1.81051 54.0282 1.7272C54.3729 1.71729 54.1674 1.53304 54.2329 1.51785C55.2617 1.28537 54.9196 1.65734 55.5913 1.70676C58.2571 1.90188 61.2214 1.91886 63.787 1.84775C64.8784 1.81696 63.7841 1.45099 64.883 1.6564C64.9594 1.67028 64.6824 1.86594 64.9818 1.88681C65.6606 1.93375 66.9484 1.89877 67.4745 1.91428C68.4884 1.94514 68.6561 1.94317 69.6151 1.9454C70.9261 1.95015 72.4854 2.04741 73.892 2.00308C74.1922 1.99304 73.7947 1.79246 74.2735 1.75833C74.7528 1.72425 76.0206 1.74126 76.448 1.78854C76.8756 1.83585 76.6935 1.9935 76.7692 2.02963C77.3917 2.33462 78.8582 1.91221 79.0469 1.90176C82.4873 1.72377 85.4377 1.9644 88.6672 1.96371C91.1188 1.96268 93.7404 1.88324 96.0732 1.89413C98.8524 1.90789 101.208 2.01658 103.908 1.99789C104.193 1.99615 103.859 1.76032 104.207 1.75772C107.491 1.73335 110.755 1.7509 114.023 1.86668C114.455 1.88126 114.885 1.90789 115.31 1.94642C115.694 1.98265 115.188 2.16278 115.569 2.21249C117.93 2.45985 121.316 3.71714 122.916 3.39514C124.413 3.96243 126.156 4.84875 127.276 5.74058C127.994 6.31707 127.127 6.0372 128.115 6.55694C128.336 6.67786 128.172 6.33126 128.497 6.528C129.868 7.36201 131.18 8.52774 132.373 9.5765C132.616 9.78995 132.679 9.60395 132.767 9.64721C133.506 10.0204 134.036 11.2884 134.179 11.523C135.333 13.3195 136.235 14.5668 137.135 16.3267C137.339 16.7374 137.31 16.1446 137.513 16.5397C138.56 18.5929 139.298 20.9048 139.608 23.1338C139.675 23.6295 139.393 23.2143 139.414 23.4519C139.495 24.4959 139.903 24.6739 139.918 25.6902C139.92 25.9032 139.737 25.7984 139.721 25.8385C139.473 26.4586 139.915 26.9547 139.929 27.1124C139.96 27.4224 139.97 27.717 139.966 28C139.966 28 139.966 28 139.966 28C139.936 29.5063 139.548 30.619 139.352 32.1882C139.322 32.4132 139.625 31.9435 139.526 32.5761C138.861 36.7908 136.837 41.0239 134.048 44.1584C133.615 44.6454 133.782 44.1805 133.741 44.1999C133.077 44.5057 133.112 45.0974 132.98 45.2677C131.931 46.5921 130.529 47.344 129.944 48.4394C125.363 51.8587 119.713 53.937 114.023 53.7538C112.67 53.7126 111.317 53.6517 109.966 53.562C109.879 53.5568 110.034 53.3473 109.861 53.3377C107.772 53.2201 108.173 53.5457 106.791 53.9438C106.443 54.0438 105.383 53.5631 105.29 53.5279C104.948 53.398 105.302 53.0864 105.188 53.0613C104.242 52.8638 104.396 53.8944 103.119 53.8947C103.079 53.893 103.247 53.7033 103.14 53.6844C102.807 53.6252 102.477 53.7006 102.151 53.6353C101.406 53.4842 101.141 52.9834 100.002 53.2749C99.8579 53.3127 100.078 53.8973 98.9383 53.8697C98.484 53.8582 96.473 53.8682 95.9094 53.8303C95.3464 53.7925 95.7329 53.6041 95.6928 53.5959C94.176 53.3468 94.7511 53.2436 93.9912 52.8748C93.2313 52.5074 93.4421 53.3837 93.1323 53.4815C92.822 53.579 91.7099 53.3735 91.4366 53.302C91.1634 53.2306 91.5041 53.1109 91.2613 53.0704C89.6508 52.8061 90.5544 53.5054 90.0237 53.6444C88.7727 53.9738 87.7983 53.3239 86.6529 53.2602C86.343 53.243 86.5959 53.391 86.32 53.4049C85.2271 53.4577 84.5697 53.255 83.3263 53.4409C83.1229 53.4712 82.1178 53.8619 81.4671 53.5752C81.375 53.5338 81.6368 53.3719 81.171 53.3356C80.4752 53.2812 79.2215 53.2458 78.4735 53.2999C77.9213 53.3399 78.5542 53.6068 77.8591 53.5239C77.5502 53.4869 78.1227 53.3308 77.5424 53.2743C76.9651 53.2178 75.489 53.2246 74.9274 53.23C74.3667 53.2355 74.6736 53.4379 74.6283 53.4516C74.3541 53.5297 73.2781 53.6273 73.183 53.627C68.387 53.6518 63.9643 53.3106 59.2947 53.4235C58.9283 53.4321 59.1724 53.6455 59.1165 53.649C57.862 53.7384 58.8511 53.1709 57.9747 52.981C58.1014 53.4141 57.584 53.3357 56.7003 53.3832C56.2745 53.4065 56.5064 53.5742 56.4676 53.5913C55.8361 53.8461 55.3963 53.5171 55.2831 53.4497C54.8649 53.2021 54.4097 53.4947 54.1251 53.3292C53.8407 53.1649 54.4953 52.9214 53.6478 52.9245C53.4101 53.0796 54.0393 53.4848 53.3959 53.5504C50.9681 53.7988 46.4362 53.4809 44.4842 53.4479C42.536 53.4149 41.9068 53.4435 40.7716 53.3875C38.7211 53.2862 39.4726 53.5868 38.1993 53.7244C36.9224 53.862 37.5431 53.1223 37.3596 52.9633C37.1794 52.8044 36.9826 52.968 36.7585 52.8806C36.5351 52.7932 37.0187 52.6851 36.4933 52.6523C35.9675 52.6196 34.5302 52.9023 34.3438 53.0686C33.9499 53.4208 34.5976 53.7905 33.2065 53.6606C33.1265 53.6529 33.3861 53.4584 33.0798 53.4388C30.6466 53.289 28.1187 53.2797 25.6885 53.1473C25.3543 53.1288 25.6531 52.9124 25.4587 52.8992C23.4331 52.7608 24.1571 53.1256 23.047 53.5309C23.2962 52.9916 22.6823 52.6616 21.145 52.6584C20.2209 52.6563 20.38 52.8919 19.7823 53.0579C19.6029 53.1079 18.949 52.9462 18.8305 53.057C18.4398 53.4191 19.0557 53.8245 17.4707 53.6631C17.4012 53.6554 17.6226 53.4572 17.3823 53.4452C15.8291 53.3666 15.6433 53.7454 13.9644 53.7912C12.6484 53.8272 10.3079 53.5963 8.80951 53.5587C8.84102 52.9523 7.42568 53.0912 6.85157 53.5092C5.87909 53.4921 4.82877 53.5158 3.88887 53.458C3.56538 53.4383 3.7779 53.2627 3.73712 53.2437C3.11162 52.9462 2.68884 53.3529 2.47897 53.3689C1.40649 53.4419 0.427671 53.4121 -0.534903 53.3916C-1.63662 53.3675 -2.69634 53.2928 -3.88026 53.2995C-3.95819 53.2991 -4.14569 53.7046 -4.68975 53.3064C-4.72259 53.2788 -3.9725 53.2094 -4.99616 53.0234C-6.02508 52.8398 -7.85243 52.1528 -9.25947 51.828C-9.60036 51.7561 -10.5614 51.7472 -11.1014 51.2035C-11.1722 51.1312 -11.0283 51.0643 -11.1233 50.9466C-11.4256 50.5695 -11.8317 50.8461 -12.123 50.2883C-12.4127 49.7277 -13.1846 49.0126 -14.4879 48.4238C-14.5282 48.4048 -14.9999 48.4925 -15.3618 48.22C-15.9398 47.7888 -16.6884 47.091 -17.2441 46.5894C-17.5109 46.3494 -17.4819 46.6582 -17.5307 46.6192C-19.3929 45.0429 -20.4054 43.5763 -21.7386 41.3613C-21.983 40.96 -22.9262 39.9088 -23.121 38.9704C-23.3159 37.9494 -22.0079 38.4657 -23.0654 36.4973C-23.462 35.7184 -25.1057 34.9488 -24.8005 33.1438C-25.2562 31.4254 -25.3634 29.7053 -25.328 28C-25.298 26.5932 -25.1732 25.1943 -25.0308 23.734C-25.0173 23.5893 -25.2918 23.0669 -25.2127 22.724C-25.0956 22.2179 -24.862 21.9851 -24.7593 21.6337C-24.3196 20.1665 -23.9742 18.7901 -23.3297 17.4483C-23.0817 16.9428 -23.0105 17.1944 -22.7006 16.6039C-22.3854 16.0203 -22.3727 15.51 -21.8 14.7941C-21.3622 14.2546 -20.5943 13.9575 -20.0189 13.2861C-20.3693 12.9797 -20.0011 12.4816 -19.3672 11.5644C-19.2445 11.3881 -19.5178 11.453 -19.4658 11.3639C-19.2546 10.997 -18.8953 10.8069 -18.6885 10.4614C-18.6377 10.3774 -18.7488 10.2628 -18.7128 10.1876C-18.4119 9.53495 -17.3433 9.04777 -17.1614 8.97789C-16.4625 8.68536 -16.3337 8.31786 -15.8387 8.05236C-15.345 7.79437 -15.9268 8.38158 -15.3836 8.04289C-14.2619 7.34341 -12.8414 6.43414 -11.6409 5.84796C-11.1628 5.61302 -11.582 5.58317 -11.5159 5.5451C-10.5386 5.00263 -9.41715 4.80778 -8.97625 4.20383C-7.88993 4.99641 -8.38439 3.85857 -6.76809 3.65013C-6.64073 3.63661 -6.36649 4.10059 -6.80277 4.2922C-7.2379 4.48432 -7.96971 4.53028 -8.54989 4.8583C-8.69188 4.93242 -9.34168 5.69505 -9.43429 5.76838C-10.1955 6.32718 -10.6271 5.68804 -10.6932 5.66792C-11.41 5.48194 -12.1526 6.4573 -12.3731 6.62764C-13.4235 7.4023 -14.3962 7.92559 -15.1883 8.67347C-15.7033 9.16606 -15.4324 9.60461 -15.8564 9.93958C-17.2318 11.0709 -18.2143 11.0679 -18.866 12.7743C-18.9949 13.145 -18.348 13.1932 -19.4772 13.9555C-19.5474 13.9979 -20.4456 14.562 -20.5341 15.1778C-20.5453 15.2543 -20.4078 15.3394 -20.4456 15.4244C-20.6989 15.9927 -21.0181 16.2803 -21.2839 16.9021C-21.5478 17.523 -21.8128 18.2833 -22.1567 18.9658C-22.3646 19.3731 -22.8553 19.8256 -22.9988 20.0129C-23.4139 20.5418 -23.2772 21.296 -23.6278 21.6029C-23.9813 21.9238 -24.1602 21.0488 -24.5902 22.0474C-24.1918 22.1869 -23.7937 22.3758 -23.3965 22.5326C-23.8356 24.324 -24.1419 26.1405 -24.1647 28C-24.1694 28.3949 -24.1612 28.7887 -24.1387 29.1807C-24.1212 29.4607 -23.9114 29.163 -23.8854 29.4606C-23.7698 30.7038 -23.7799 31.8223 -23.439 33.0844C-23.1731 34.0599 -22.6348 35.0529 -22.2188 36.0015C-22.4583 36.7705 -21.6899 38.1646 -21.1772 39.1743C-20.999 39.5314 -21.1229 39.5705 -21.017 39.8393C-20.5991 40.8468 -20.4917 40.1892 -20.2828 40.403C-19.3674 41.2867 -20.1051 41.9301 -19.1397 43.1139C-19.089 43.1825 -18.0685 43.5891 -17.9561 43.6583C-17.2363 44.1359 -17.9961 43.8828 -17.6617 44.295C-17.0424 45.0386 -16.6309 45.6038 -15.6614 46.2218C-15.376 46.4039 -14.5667 46.6392 -14.1905 47.2071C-14.1405 47.2824 -14.2766 47.3936 -14.2264 47.4412C-13.2965 48.2841 -12.9668 47.841 -12.2857 48.0422C-11.6059 48.2406 -10.8267 49.0458 -10.6662 49.2351C-10.2614 49.7306 -11.1176 49.1497 -11.1555 49.1555C-11.631 49.2724 -10.8935 49.5922 -10.3436 49.8652C-10.4792 50.3812 -9.65579 50.6946 -9.76915 50.1424C-9.78202 50.0833 -10.2414 49.9389 -10.3436 49.8652C-9.63771 49.6212 -8.79345 49.9063 -7.95884 50.6819C-7.56097 51.0381 -8.09008 51.1774 -6.61379 51.4815C-5.94407 51.6042 -6.11477 51.1933 -5.51822 51.2253C-4.16948 51.294 -2.48113 51.8313 -1.07766 51.8015C-0.572087 51.791 -1.06065 51.5868 -0.716978 51.571C-0.655854 51.5679 -0.595191 51.5654 -0.534903 51.5635C0.348061 51.5371 1.14578 51.6609 2.04583 51.5903C2.13321 51.5832 1.91967 51.3772 2.21967 51.3746C4.49412 51.3506 6.47457 51.4826 8.84929 51.4862C9.99666 51.4879 12.048 51.3743 13.2366 51.3971C15.2967 51.4355 17.8309 51.7351 19.5907 51.6623C20.7385 51.6157 20.4867 51.4097 20.9785 51.2693C21.9276 50.9971 23.6075 51.4846 23.8337 51.5601C23.8406 51.5626 22.8529 51.6112 23.3799 51.717C23.6863 51.9374 23.8225 51.5611 23.8337 51.5601C23.9822 51.6089 25.9553 51.6556 26.347 51.6163C26.5599 51.5947 26.4408 51.3995 26.5518 51.3919C29.1901 51.2172 31.833 51.1676 34.5088 51.2589C34.5559 51.2628 34.485 51.4812 34.5958 51.4878C36.1449 51.5849 37.1368 51.3177 38.4144 51.1591C39.6918 51.0006 40.7049 51.0537 41.4611 51.4286C42.4249 51.3814 43.8078 51.5471 44.6035 51.6477C45.3992 51.7483 45.5103 51.3231 45.5803 51.3147C47.7641 51.0457 49.0265 51.2891 51.2921 51.3269C52.3692 51.3457 54.5058 51.284 55.672 51.2375C56.5937 51.2001 57.149 51.2997 57.9983 51.236C58.1132 51.2275 57.9971 51.0382 58.0322 51.0309C58.98 50.8045 58.5245 51.2672 58.7202 51.3498C59.4297 51.6504 59.868 51.8104 61.0818 51.669C61.3618 51.6367 62.1773 50.9704 62.6876 50.9314C63.3512 50.882 63.1007 51.1208 63.7955 51.063C63.855 51.0582 63.8426 50.9109 64.2714 50.9174C66.2618 50.9456 68.4318 51.0313 70.5003 51.0166C70.7828 51.0151 70.4206 50.7814 70.8288 50.7755C72.7443 50.7478 74.8438 50.7564 76.71 50.8658C77.1693 50.8935 76.8814 51.0571 76.9811 51.1057C77.5932 51.3997 78.4614 50.9725 78.6046 50.9644C82.0214 50.7591 84.6363 51.1457 88.1188 50.9617C88.3084 50.9508 89.7676 50.493 90.4186 50.8857C90.4631 50.9118 91.1072 51.3136 91.6767 51.0389C91.7121 51.0217 91.3107 50.8148 92.0111 50.8359C92.7115 50.857 93.8387 50.7188 94.8015 50.9461C95.1063 51.0177 95.8267 51.4185 96.7358 51.099C96.7951 51.0767 98.1987 50.3543 98.6997 50.8527C98.7809 50.9347 98.6959 51.4622 99.781 51.1918C99.9884 51.1393 99.612 51.0217 100.158 50.9482C100.995 50.835 102.104 50.9763 103.133 50.7413C103.312 50.6997 104.076 50.3417 104.688 50.6134C104.784 50.656 104.602 50.8321 104.926 50.8518C106.464 50.9463 108.075 50.8285 109.637 50.9504C110.19 50.9932 109.907 51.2778 110.484 51.3541C111.061 51.4304 112.223 51.5037 112.827 51.3736C113.43 51.2435 112.771 50.7898 113.675 50.7535C113.791 50.7489 113.907 50.7446 114.023 50.7407C117.485 50.6138 120.947 50.0767 124.112 48.5652C124.591 48.3309 124.128 48.3901 124.815 48.0229C127.433 46.7377 131.013 43.2629 132.661 41.3468C134.039 39.8319 132.768 42.073 133.739 40.8323C134.207 40.2173 134.152 39.2386 134.221 39.076C134.907 37.4536 135.586 36.414 136.003 34.8762C136.085 34.5599 135.788 34.8025 135.858 34.5359C136.092 33.6254 136.406 32.6808 136.537 31.7875C136.593 31.3854 136.42 31.4357 136.484 31.0722C136.629 30.1983 136.758 29.4224 136.933 28.5571C136.949 28.4766 137.14 29.0236 137.162 28.3546C137.165 28.2395 137.169 28.1212 137.173 28C137.173 28 137.173 28 137.173 28C137.207 26.9846 137.235 25.7782 136.937 24.6922C136.835 24.3344 136.473 24.3798 136.581 23.5631C136.6 23.3931 137.092 23.5034 136.51 22.6841C136.419 22.5355 135.525 21.2101 135.582 20.404C135.601 20.1907 135.767 19.5779 135.543 19.1856C135.511 19.1339 135.418 19.431 135.26 19.1013C134.702 17.9392 134.094 16.7309 133.328 15.6536C133.123 15.3681 133.233 15.9173 132.933 15.493C132.108 14.3272 131.017 12.9179 130.062 11.8885C129.711 11.5086 130.086 11.636 130.072 11.5965C129.845 10.9494 129.291 11.0088 129.127 10.8952C128.095 10.1806 127.452 9.45747 126.456 8.86404C126.181 8.70265 126.265 8.98984 126.202 8.97023C125.561 8.76747 126.159 8.72726 125.825 8.47644C124.887 7.77611 123.705 7.19966 122.601 6.78275C122.195 6.63106 122.563 7.02075 122.201 6.88513C120.062 6.09305 117.746 5.56929 115.52 5.30403C115.099 5.25456 115.375 5.09623 115.289 5.05117C114.909 4.85142 114.394 4.92836 114.023 5.02748C113.795 5.08334 113.615 5.14177 113.534 5.15493C112.515 5.3206 112.119 5.16606 111.218 5.1949C106.82 5.33852 101.389 5.23617 97.237 5.17293C91.8267 5.09155 87.6285 4.92529 82.4692 4.96846C82.1413 4.97099 82.4719 5.20348 82.1893 5.20864C78.5398 5.26468 74.947 5.17384 71.2902 5.24099C70.9901 5.24608 71.4227 5.46648 70.941 5.48207C69.9531 5.5156 68.7017 5.50362 67.7028 5.43325C67.2157 5.39934 67.8691 5.21022 67.3787 5.17995C66.2369 5.10905 65.0129 5.09335 63.84 5.12868C63.3409 5.1442 64.0939 5.36961 63.4452 5.37221C59.0259 5.39457 54.6857 5.4334 50.2198 5.1415C49.9137 5.12145 49.645 4.66333 48.9941 4.75118C48.945 4.87832 48.9477 5.02788 48.9263 5.16378C42.493 5.23698 36.1253 5.07816 29.6739 5.05361C29.4019 5.05263 29.872 5.29536 29.3454 5.2947C26.2975 5.29111 23.3378 5.35835 20.2201 5.11708C19.9108 5.09349 20.0695 4.66645 19.1579 4.73104C18.9971 4.74282 17.6241 4.79978 17.2692 4.89248C17.221 4.90646 17.4715 5.10578 17.029 5.11159C14.458 5.14186 11.7638 5.09635 9.19726 4.97457C8.78304 4.95453 9.22415 4.74227 8.92913 4.72616C6.83636 4.61348 4.56002 4.77484 2.56028 4.58211C1.22172 4.45235 1.71729 4.08543 1.006 3.72427C0.905399 3.67331 0.0765245 3.66524 0.0336607 3.4551C-0.0763832 2.9267 0.325098 2.34811 0.16036 1.78488C0.125555 1.66357 -0.984522 1.79423 -0.327285 1.50107C-0.28137 1.48145 0.523441 1.38415 0.721667 1.2847C0.859678 1.21594 0.610977 1.00223 0.892564 0.914217C1.17413 0.826282 1.48353 1.00542 1.95036 0.90201C2.41697 0.797318 2.2118 0.554203 3.14369 0.525425ZM48.1865 52.0972C48.9233 52.3014 49.032 51.5536 48.2351 51.7325C48.1965 51.7421 48.1485 52.0872 48.1865 52.0972ZM-24.7248 26.8804C-24.9351 27.3977 -24.8629 27.842 -24.7175 28C-24.7175 28 -24.7175 28 -24.7175 28C-24.6422 28.0825 -24.5477 28.0899 -24.4603 28C-24.4603 28 -24.4603 28 -24.4603 28C-24.4176 27.9562 -24.3766 27.8893 -24.3395 27.797C-24.0801 27.1562 -24.6101 26.6063 -24.7248 26.8804ZM-22.6072 17.4548C-23.3104 18.3526 -22.3986 18.9213 -22.1185 17.7915C-22.1012 17.7266 -22.5658 17.4036 -22.6072 17.4548ZM4.3046 3.62142C4.29443 3.61149 3.69861 3.60182 3.68437 3.61166C3.3671 3.84914 4.55851 3.86832 4.3046 3.62142ZM-16.9932 9.5574C-17.3535 9.67911 -17.9613 10.496 -17.5263 10.3247C-17.1838 10.1864 -16.5542 9.40503 -16.9932 9.5574ZM86.622 52.8952C86.6336 52.9064 87.0608 52.9164 87.0522 52.8534C87.0232 52.6506 86.4287 52.7078 86.622 52.8952ZM-1.88969 3.30603C-4.32643 3.42964 -6.00892 2.88679 -3.2452 2.59471C-2.74742 2.55593 -4.28207 2.99768 -3.64222 3.00066C-2.49067 3.00971 -1.75278 2.41227 -0.556696 2.6995C-0.350388 2.74655 -1.75821 3.29245 -1.89401 3.30748C-1.89258 3.307 -1.89113 3.30651 -1.88969 3.30603ZM48.6107 52.9953C48.6255 53.0052 49.2168 53.0146 49.231 53.0048C49.5512 52.7674 48.36 52.7484 48.6107 52.9953ZM111.548 53.3576C111.581 53.3786 112.953 53.3984 112.998 53.3789C113.713 52.9908 110.939 52.9498 111.548 53.3576ZM8.78593 53.5425C8.1407 53.7813 7.36885 53.8094 6.85451 53.5096C7.49571 53.5255 8.14121 53.5278 8.78593 53.5425Z" />
</g>
</svg>
