<svg viewBox="0 0 1440 7" fill="none" xmlns="http://www.w3.org/2000/svg">
<path d="M1370.1 1.49771C1371.83 1.44384 1374.26 1.44159 1376.28 1.37525C1384.79 1.11288 1387.89 0.79191 1395.63 0.503165C1395.64 0.502945 1395.64 0.502724 1395.65 0.502504C1407.12 0.0708048 1441 0.120401 1441 0.546387C1441 0.546398 1441 0.54641 1441 0.546421C1441 0.550838 1441 0.555307 1440.99 0.559829C1440.87 0.645653 1437.99 0.739388 1437.56 0.836534C1437.13 0.933794 1437.45 1.56018 1433.35 1.59675C1427.42 1.6382 1413.17 1.52119 1410 1.57207C1407.84 1.59711 1405.17 1.68399 1402.4 1.74468C1399.89 1.80005 1397.7 1.85851 1395.7 1.93479C1390.6 2.12575 1386.59 2.48913 1380.81 2.8485C1377.6 2.90944 1374.35 2.93114 1371.15 2.93198C1366.95 3.08208 1360.58 3.07864 1358.03 3.11757C1356.75 3.13813 1355.85 3.17397 1354.79 3.20655C1354.12 3.22753 1353.41 3.24641 1352.53 3.25638C1350.1 3.28468 1346.32 3.2432 1341.87 3.27088C1334.58 3.31323 1333.28 3.47845 1328.89 3.50474C1324.35 3.53069 1317.3 3.43709 1311.51 3.49451C1310.78 3.51283 1310.05 3.53115 1309.33 3.54951C1309.85 3.59149 1310.37 3.63349 1310.89 3.6755C1307.97 3.69427 1306.71 3.6082 1304.04 3.60677C1300.88 3.6052 1299.27 3.68739 1297.15 3.68857C1295.41 3.68951 1293.05 3.62682 1290.8 3.6349C1287.51 3.64677 1288.23 3.73982 1286.46 3.76178C1285.76 3.76495 1272.71 3.87513 1271.98 3.88834C1266.38 3.93455 1265.9 3.81148 1261.43 3.85255C1255.15 3.91638 1248.76 4.04712 1242.55 4.28187C1236.5 4.51285 1230.57 4.73168 1224.93 4.91336C1219.82 5.07816 1214.48 5.21328 1209.39 5.31838C1217.41 4.79058 1199.63 4.96805 1206.29 5.32321C1200.61 5.38478 1196.6 5.61191 1191.22 5.69763C1187.74 5.75188 1185.34 5.72747 1180.37 5.81752C1171.56 5.97855 1161.92 6.31283 1159.38 5.97686C1149.04 6.17607 1140.08 6.12077 1136.35 6.47615C1133.68 6.51917 1126.84 6.37454 1123.85 6.36488C1121.02 6.36754 1099.31 6.3577 1095.76 6.34701C1092.2 6.34728 1085.99 6.34312 1083 6.36908C1079.24 6.4014 1076.61 6.73638 1069.92 6.32744C1062.14 6.33937 1059.37 6.31767 1052.13 6.24057C1050.82 6.22637 1050.68 6.16718 1049.91 6.16352C1048.33 6.15607 1045.65 6.186 1042.84 6.1758C1038.21 6.15893 1035.57 6.01886 1036.09 6.21003C1033.04 6.2228 1029.98 6.23426 1026.93 6.24453C1025.86 6.20083 1024.79 6.15699 1023.72 6.11301C1022.09 6.14074 1020.46 6.16815 1018.83 6.19525C1020.75 5.93882 1009.27 6.00865 1012.99 6.19413C1007.08 6.09037 1001.17 5.98291 995.252 5.87267C996.078 5.57228 982.269 5.71528 983.428 5.89362C982.751 5.88682 982.074 5.87999 981.398 5.87314C975.478 5.73314 970.033 5.74547 962.815 5.61593C955.591 5.48607 956.275 5.4628 954.08 5.29782C952.381 5.28819 950.681 5.2785 948.981 5.26878C940.065 5.56475 941.643 4.90608 926.375 5.04532C921.501 4.74948 909.48 4.75442 901.502 4.75141C900.575 4.75102 900.559 4.79837 899.324 4.80109C896.307 4.80678 888.592 4.67383 888.858 4.82984C886.193 4.76101 883.525 4.69269 880.856 4.62497C880.167 4.62774 879.478 4.63054 878.789 4.63339C877.338 4.63994 875.87 4.64664 874.386 4.65349C874.397 4.70143 874.408 4.74937 874.418 4.79731C870.011 4.59745 863.121 4.60807 859.719 4.54511C859.037 4.53236 858.896 4.46524 856.758 4.43232C854.195 4.39301 849.791 4.38318 846.805 4.34369C845.658 4.40951 844.505 4.47541 843.345 4.54137C838.098 4.54885 836.319 4.34586 833.211 4.3131C832.616 4.30655 822.544 4.26594 821.998 4.26778C817.549 4.27812 818.713 4.44625 805.886 4.35144C803.586 4.33461 801.676 4.26926 799.612 4.25801C796.033 4.23777 784.845 4.32197 784.023 4.43846C779.643 4.27182 767.631 4.29035 764.179 4.23633C763.121 4.21961 762.887 4.12369 759.622 4.09301C756.946 4.06785 750.198 4.12341 746.847 4.10116C743.293 4.07708 742.014 3.99378 740.413 3.98373C738.888 3.97431 737.534 4.03511 735.488 4.02935C729.123 4.01037 723.26 3.89253 718.248 3.87923C710.944 3.85963 704.468 4.03724 698.363 4.11036C696.844 4.0951 695.351 4.05136 693.755 4.04809C674.068 4.006 651.852 3.94233 632.099 3.88528C622.936 3.85775 600.133 3.58767 606.219 4.02298C603.024 4.09624 579.84 3.91593 575.468 3.91417C571.039 3.91143 567.544 3.98916 564.091 3.99072C553.638 3.99559 546.317 3.94169 533.556 4.01591C530.286 4.03533 526.782 4.12938 524.811 4.12964C522.455 4.12973 519.928 4.04273 516.908 4.03946C509.683 4.03207 496.21 4.0747 489.23 4.06812C487.967 4.06666 487.523 3.98922 485.726 3.96712C478.652 3.88073 470.737 3.90104 472.147 4.14787C463.069 4.02016 454.738 4.1636 446.327 4.18823C435.875 4.21832 420.543 4.23714 406.46 4.28653C396.342 4.32161 387.406 4.3716 380.842 4.44355C371.204 4.55393 371.359 4.66078 357.04 4.64809C353.824 4.6464 350.713 4.63762 346.825 4.63964C337.778 4.6437 329.482 4.51034 322.594 4.83214C312.616 4.87393 304.525 5.0322 297.121 4.95776C296.205 5.02595 295.381 5.09296 294.494 5.16186C293.219 5.18888 292.039 5.21526 290.788 5.24463C290.405 5.20462 290.057 5.16393 289.643 5.12492C284.315 5.2284 278.18 5.53237 272.449 5.63767C268.67 5.70791 265.122 5.75181 262.149 5.75248C249.604 5.8657 217.337 5.04611 205.476 4.68072C199.174 4.51303 198.833 4.61781 195.23 4.35747C193.821 4.35667 192.408 4.36074 191.005 4.37176C190.121 4.41621 189.245 4.46338 188.361 4.51395C187.279 4.51873 186.163 4.52752 185.051 4.54247C177.749 4.64031 169.658 4.72846 162.984 4.85151C148.943 5.11048 127.86 5.64953 113.754 5.75204C110.216 5.7798 105.795 5.7375 102.332 5.77445C97.2907 5.8263 96.0671 6.00022 89.6695 6.04347C78.643 6.13724 58.1077 5.87331 47.6863 5.6786C44.5922 5.62911 43.1444 5.65877 41.0085 5.6194C32.0461 5.44875 24.6898 5.21526 16.0964 4.9553C6.881 4.40519 7.68612 4.21936 4.84227 3.8803C2.684 3.62396 -3.92597 2.8961 -4.86056 2.70162C-5.51633 2.56898 -3.03961 2.59825 -3.96031 2.4404C7.07142 3.00184 11.7006 3.29071 20.6588 3.78563C37.2133 4.40221 53.7803 4.67342 70.3483 4.72281C71.8552 4.78372 73.3627 4.8428 74.8703 4.90015C74.8703 4.90028 74.8703 4.9004 74.8703 4.90052C81.2336 4.96885 83.9306 4.81095 87.3622 4.76337C110.956 4.4852 150.947 3.66025 185.03 3.18146C198.434 3.05948 210.885 3.57051 221.083 3.7914C228.876 4.03216 254.216 4.33088 259.564 4.36751C260.946 4.39297 261.346 4.47933 262.807 4.48199C266.035 4.46628 269.208 4.43859 272.438 4.39787C282.357 4.21569 292.377 3.80749 302.252 3.6402C329.328 3.35117 357.233 3.10194 384.6 2.95929C391.811 2.92394 399.025 2.89281 406.456 2.86452C472.84 2.62044 538.614 2.52621 604.08 2.56877C618.11 2.57864 635.922 2.52757 649.66 2.58457C655.392 2.60823 657.779 2.74927 665.316 2.65612C665.395 2.69349 665.474 2.73087 665.553 2.76825C672.122 2.73219 676.325 2.65352 683.697 2.6569C689.885 2.6593 706.3 2.68492 711.805 2.71165C714.654 2.72494 713.594 2.79227 716.245 2.7978C720.754 2.80655 730.511 2.73365 736.738 2.75042C742.407 2.76522 751.993 2.87328 756.334 2.87539C772.045 2.88284 789.205 2.82661 805.937 2.93479C810.583 2.9648 816.44 3.08381 817.948 3.08895C820.8 3.09803 821.64 3.0147 823.534 3.0133C833.145 3.00555 848.277 3.20024 857.69 3.27169C864.665 3.32362 871.85 3.37923 878.8 3.43823C903.152 3.64468 928.071 3.89425 951.824 4.15573C971.215 4.37265 1003.44 4.67508 1021.34 4.86644C1025.2 4.90899 1024.17 4.99761 1027.42 5.02031C1031.01 5.04506 1032.96 4.99241 1034.64 4.99777C1046.26 5.04305 1071.93 5.07553 1082.91 5.13806C1085 5.15213 1086.52 5.2276 1087.77 5.22728C1088.4 5.22723 1089.83 5.17575 1091.82 5.16922C1109.39 5.10691 1122.19 5.08259 1139.4 4.95275C1171.53 4.71168 1208.6 3.93619 1242.51 2.82466C1243.37 2.79676 1244.25 2.77044 1245.15 2.74563C1252.68 2.54573 1257.9 2.64175 1258.93 2.62133C1261.27 2.58652 1262.77 2.46457 1267.48 2.39576C1283.16 2.16688 1304.28 2.29894 1319.2 2.25108C1326.55 2.22808 1336.7 2.09733 1343.95 2.0327C1346.52 2.0103 1350.73 1.99027 1354.77 1.94464C1359.8 1.88979 1364.52 1.80552 1365.96 1.74476C1367.52 1.67954 1368.24 1.55606 1370.1 1.49771ZM1175.08 5.82384C1176.11 5.63626 1165.26 5.94733 1169.33 5.97801C1170.25 5.98578 1174.81 5.8737 1175.08 5.82384ZM667.405 3.70278C667.504 3.75239 667.604 3.80201 667.703 3.85163C669.126 3.833 670.548 3.81442 671.97 3.79589C671.171 3.76499 670.372 3.7341 669.573 3.70323C668.85 3.70307 668.128 3.70292 667.405 3.70278Z" />
</svg>
