<svg viewBox="0 0 1440 13" fill="none" xmlns="http://www.w3.org/2000/svg">
<path d="M1370.07 10.9893C1371.79 10.9782 1374.24 11.0443 1376.27 11.0486C1384.79 11.0671 1387.95 11.1129 1395.65 11.1401C1407.09 11.1812 1440.99 11.0959 1441 11.5464C1441 11.5464 1441 11.5464 1441 11.5464C1441 11.5508 1441 11.5553 1440.99 11.5598C1440.87 11.6457 1437.98 11.7394 1437.56 11.8364C1437.13 11.9335 1437.45 12.5605 1433.35 12.5957C1427.41 12.6422 1413.16 12.4809 1409.99 12.4876C1407.83 12.4923 1405.15 12.549 1402.39 12.5587C1393.46 12.5898 1388.78 12.547 1380.74 12.6989C1377.5 12.6161 1374.31 12.5332 1371.08 12.4499C1366.89 12.4857 1360.5 12.3739 1357.97 12.3779C1355.87 12.3811 1354.64 12.4447 1352.46 12.4458C1350.04 12.4475 1346.24 12.3744 1341.81 12.3799C1334.5 12.3885 1333.21 12.5547 1328.83 12.5698C1324.3 12.5853 1317.21 12.4818 1311.45 12.5288C1310.72 12.5457 1309.99 12.5627 1309.26 12.5796C1309.78 12.6226 1310.3 12.6656 1310.83 12.7086C1307.89 12.7218 1306.66 12.6332 1303.98 12.6252C1300.8 12.6155 1299.21 12.6926 1297.09 12.6864C1295.34 12.6812 1292.97 12.6092 1290.74 12.6063C1287.43 12.6015 1288.16 12.6979 1286.39 12.7097C1285.73 12.7157 1272.61 12.7173 1271.91 12.7134C1266.28 12.6918 1265.87 12.5606 1261.35 12.5257C1249.03 12.4292 1236.22 12.4421 1224.81 12.3513C1222.03 12.3291 1219.17 12.2954 1216.41 12.253C1214.01 12.2162 1211.62 12.1768 1209.28 12.1363C1217.31 11.9126 1199.54 11.4229 1206.18 12.0255C1200.51 11.8796 1196.49 11.9715 1191.11 11.8889C1187.63 11.8359 1185.23 11.7387 1180.26 11.6928C1171.45 11.6113 1161.81 11.7443 1159.28 11.3595C1148.93 11.3521 1139.97 11.1786 1136.24 11.4878C1133.58 11.4958 1126.74 11.2786 1123.75 11.2449C1120.92 11.2055 1099.21 11.0923 1095.66 11.0958C1092.1 11.0918 1085.89 11.0937 1082.9 11.1278C1079.14 11.1701 1076.51 11.5114 1069.82 11.1377C1062.04 11.1947 1059.27 11.1949 1052.03 11.1829C1050.72 11.181 1050.58 11.1233 1049.81 11.1271C1048.23 11.135 1045.55 11.1921 1042.74 11.2134C1038.11 11.2484 1035.47 11.1428 1035.99 11.3272C1032.93 11.3779 1029.89 11.4298 1026.83 11.4829C1025.76 11.4543 1024.69 11.4258 1023.62 11.3974C1021.99 11.4489 1020.36 11.5007 1018.73 11.5529C1020.64 11.2653 1009.16 11.5186 1012.89 11.6443C1007.84 11.6379 1002.79 11.6347 997.731 11.6345C996.894 11.6342 996.051 11.6338 995.201 11.6334C996.06 11.3188 982.197 11.7099 983.388 11.8665C982.712 11.8716 982.033 11.8767 981.35 11.8817C975.367 11.8459 969.905 11.9519 962.758 11.9425C955.523 11.9328 956.151 11.8979 953.996 11.7687C952.315 11.7866 950.62 11.8044 948.913 11.8221C939.924 12.2599 941.558 11.5796 926.298 11.9492C921.375 11.727 909.321 11.9052 901.411 12.007C900.483 12.0189 900.468 12.0665 899.228 12.0855C896.161 12.1317 888.511 12.0954 888.762 12.2477C886.1 12.2118 883.388 12.1757 880.737 12.1391C878.568 12.1733 876.392 12.2073 874.207 12.2412C874.219 12.289 874.23 12.3368 874.241 12.3847C869.817 12.2339 862.955 12.3138 859.536 12.2827C858.857 12.2764 858.711 12.2108 856.596 12.1976C854.124 12.1819 849.565 12.2114 846.622 12.1967C845.48 12.2721 844.338 12.3476 843.194 12.4229C837.947 12.4728 836.114 12.2829 833.029 12.2733C832.47 12.272 822.353 12.3021 821.809 12.3068C817.347 12.3457 818.603 12.5096 805.699 12.49C803.4 12.4862 801.541 12.4314 799.463 12.4313C795.787 12.4313 784.739 12.5696 783.861 12.6892C779.407 12.5436 767.493 12.6109 763.987 12.5688C762.93 12.5559 762.691 12.461 759.445 12.4417C756.792 12.4261 749.992 12.5034 746.665 12.4907C743.105 12.477 741.828 12.3971 740.237 12.3913C738.732 12.386 737.347 12.4503 735.306 12.4496C728.913 12.4464 723.111 12.3407 718.065 12.3364C710.716 12.33 704.292 12.5164 698.162 12.5961C696.647 12.5824 695.172 12.5402 693.588 12.5383C673.822 12.5143 651.72 12.4461 631.89 12.3584C622.768 12.3211 599.927 11.99 606.028 12.4412C605.78 12.4464 605.41 12.4497 604.937 12.4512C599.166 12.4707 579.381 12.2407 575.237 12.2135C570.966 12.1889 567.334 12.2458 563.896 12.2259C553.39 12.162 546.157 12.0592 533.394 11.9918C530.034 11.973 526.582 12.0212 524.623 11.993C522.271 11.959 519.798 11.8341 516.734 11.7744C511.757 11.6763 503.881 11.5348 497.211 11.1719C494.115 11.0551 491.268 10.9192 489.078 10.8019C487.814 10.7335 487.368 10.6324 485.562 10.5078C478.514 10.0172 470.62 9.49943 472 9.84157C462.983 9.12084 454.612 8.74195 446.26 8.37218C436.744 7.93427 423.126 7.51177 410.05 7.3919C398.817 7.28413 387.974 7.30334 380.839 7.34594C371.083 7.40993 371.351 7.52538 357.003 7.43091C353.817 7.4095 350.647 7.38002 346.787 7.35091C337.733 7.28264 329.428 7.05064 322.53 7.25436C312.487 7.12391 304.456 7.07119 296.997 6.68642C296.119 6.71687 295.254 6.74628 294.354 6.77309C293.769 6.75792 293.193 6.74225 292.627 6.72606C291.967 6.70715 291.313 6.68796 290.665 6.6685C290.283 6.60798 289.908 6.54755 289.524 6.48666C280.68 6.20061 269.503 5.91172 262.029 5.54197C249.839 4.90103 218.971 3.39831 206.389 3.11579C206.065 3.10583 205.749 3.09609 205.444 3.08663C199.115 2.89072 198.807 2.98732 195.189 2.68287C193.78 2.66272 192.371 2.64288 190.956 2.62329C190.054 2.64818 189.198 2.67434 188.307 2.69982C180.215 2.50637 170.622 2.22188 162.914 2.07918C148.867 1.81388 127.794 1.64249 113.684 1.78443C112.42 1.79608 111.004 1.80513 109.626 1.81959C107.09 1.84706 104.489 1.87626 102.281 1.94094C97.2435 2.09364 96.0327 2.28872 89.6484 2.54092C78.6742 2.97811 58.0993 3.83633 47.7372 4.34535C44.6683 4.49831 43.2096 4.62855 41.0856 4.73745C32.0978 5.19837 24.7566 5.54348 16.175 6.04069C6.9956 6.31899 7.79408 6.08175 4.91542 6.0161C2.61347 5.97256 -3.84091 5.92191 -4.90171 5.83839C-5.58401 5.77693 -3.05853 5.54013 -4.0123 5.48188C7.00293 4.88867 11.6916 4.7584 20.6562 4.47866C37.1718 3.69299 53.7779 2.87293 70.2888 2.06703C71.8378 2.04841 73.2858 2.03503 74.8305 2.01778C74.8305 2.01791 74.8305 2.01803 74.8305 2.01815C81.16 1.7837 83.884 1.52028 87.2997 1.34362C93.6708 1.01279 101.231 0.718546 109.593 0.495146C138.901 -0.146791 177.593 1.0757 206.422 1.82887C211.667 1.97153 216.579 2.12919 221.051 2.2888C228.847 2.50967 254.184 3.66874 259.518 4.03419C260.902 4.12574 261.279 4.23044 262.753 4.30544C272.725 4.75097 282.672 5.12662 292.667 5.38155C295.832 5.4628 299.007 5.52032 302.207 5.56552C329.275 6.14127 357.263 5.86938 384.559 5.87974C393.063 5.88142 401.581 5.88981 410.065 5.96824C439.283 6.01228 468.356 8.39317 497.266 9.73375C532.845 11.0246 568.413 10.7446 603.898 10.9809C604.243 10.9822 604.591 10.9834 604.942 10.9846C618.756 11.0316 636.034 11.0124 649.455 11.0777C655.172 11.1055 657.6 11.2482 665.109 11.1567C665.188 11.1941 665.268 11.2314 665.347 11.2688C671.997 11.2337 676.1 11.1544 683.506 11.1542C689.668 11.1548 706.183 11.163 711.605 11.1797C714.447 11.1884 713.387 11.2575 716.047 11.2585C720.62 11.2599 730.299 11.167 736.554 11.1676C742.225 11.1685 751.793 11.2481 756.162 11.2353C771.873 11.1906 788.994 11.0607 805.742 11.073C810.368 11.0768 816.314 11.159 817.767 11.1544C820.598 11.1452 821.441 11.0562 823.341 11.042C832.991 10.9709 848.059 11.0466 857.507 11.0284C888.322 10.9707 921.037 10.8224 951.738 10.6633C964.19 10.5992 981.967 10.478 997.719 10.342C1006.56 10.2659 1014.81 10.2109 1021.22 10.1861C1025.09 10.1715 1024.05 10.2752 1027.3 10.2521C1030.9 10.2268 1032.84 10.1494 1034.52 10.1333C1046.15 10.0139 1071.83 9.84151 1082.81 9.89704C1084.9 9.90613 1086.41 9.97936 1087.67 9.9775C1088.3 9.97672 1089.73 9.92355 1091.72 9.91666C1109.29 9.85875 1122.1 9.91137 1139.32 10.004C1163.37 10.1355 1190.22 10.3259 1216.43 10.6938C1226.08 10.8276 1235.73 10.9179 1245.1 11.001C1252.63 11.067 1257.83 11.2432 1258.89 11.248C1261.17 11.2576 1262.75 11.1664 1267.41 11.1641C1283.1 11.1597 1304.21 11.3228 1319.15 11.2983C1326.5 11.2871 1336.62 11.1737 1343.88 11.1531C1349.69 11.1373 1363.33 11.1973 1365.93 11.1426C1367.48 11.1098 1368.2 11.0019 1370.07 10.9893ZM1174.97 11.5605C1176 11.395 1165.16 11.4486 1169.23 11.5753C1170.14 11.6033 1174.7 11.6028 1174.97 11.5605ZM667.214 12.2036C667.315 12.2532 667.415 12.3029 667.515 12.3525C668.969 12.334 670.367 12.3154 671.78 12.2967C670.986 12.2659 670.194 12.2351 669.405 12.2042C668.684 12.204 667.943 12.2038 667.214 12.2036Z" />
</svg>
