<svg viewBox="0 0 910 7" fill="none" xmlns="http://www.w3.org/2000/svg">
<path d="M44.6351 4.20213C43.5529 4.24301 42.0257 4.22418 40.7503 4.26738C36.1163 4.42079 34.0249 4.55959 30.3524 4.66315C29.8041 4.67813 29.1956 4.69261 28.562 4.70563C21.3423 4.89084 0.00158687 4.92222 -7.91781e-08 4.48056C-7.91791e-08 4.48055 -7.91802e-08 4.48053 -7.91811e-08 4.48052C-7.95673e-08 4.47611 0.00207512 4.47164 0.00622551 4.46712C0.0813598 4.38129 1.89734 4.28757 2.16608 4.19045C2.43542 4.09326 2.23254 3.46663 4.81226 3.43066C8.55182 3.38691 17.5176 3.52383 19.512 3.49402C20.8741 3.47867 22.5521 3.40609 24.2916 3.37101C26.6506 3.323 28.5384 3.28153 30.3024 3.21377C32.7372 3.12204 34.9413 2.95619 37.8798 2.73386C39.9172 2.72361 41.9295 2.73581 43.9672 2.75991C46.6002 2.64512 50.6236 2.67604 52.2245 2.64495C53.5279 2.61867 54.3057 2.54246 55.6837 2.52039C57.2075 2.49568 59.5917 2.53578 62.3975 2.49823C63.2645 2.48655 64.0209 2.47077 64.6884 2.45249C67.352 2.37801 68.3348 2.25854 70.5513 2.22609C73.4178 2.18435 77.856 2.25095 81.5067 2.17469C81.9586 2.15403 82.413 2.1334 82.87 2.1128C82.5424 2.07243 82.2159 2.03207 81.8909 1.99172C83.7148 1.96374 84.5246 2.046 86.201 2.04043C88.2058 2.03388 89.1896 1.9487 90.5398 1.94384C91.6355 1.93998 93.1125 1.99969 94.5383 1.99049C96.5993 1.97752 96.1505 1.88496 97.2669 1.86346C97.7045 1.85477 105.927 1.77598 106.385 1.77401C109.911 1.75926 110.217 1.88729 113.027 1.88992C120.818 1.89676 128.824 1.76813 136.027 1.70161C139.234 1.67194 142.614 1.6656 145.815 1.67124C140.754 2.02494 151.95 2.22836 147.759 1.73234C151.337 1.78795 153.87 1.63444 157.249 1.63549C159.444 1.6357 160.936 1.69716 164.074 1.66722C164.157 1.66641 164.239 1.66555 164.322 1.66464C169.809 1.60755 175.713 1.32393 177.28 1.65445C183.773 1.47814 189.415 1.39792 191.739 0.971633C193.41 0.878901 197.724 0.901142 199.614 0.888557C199.808 0.886341 200.128 0.881732 200.583 0.875443C204.221 0.80198 215.321 0.814371 217.312 0.836941C219.55 0.843239 223.464 0.874049 225.351 0.869292C227.717 0.864314 229.384 0.541605 233.586 1.04084C235.807 1.08586 237.372 1.13767 238.845 1.20647C240.648 1.29088 242.292 1.40755 244.779 1.58316C245.609 1.64096 245.682 1.70348 246.175 1.73195C247.158 1.78851 248.844 1.83677 250.609 1.91122C253.525 2.03358 255.154 2.20762 254.844 2.00994C256.759 2.04809 258.694 2.0771 260.594 2.099C261.258 2.15395 261.975 2.20949 262.612 2.26229C263.626 2.2491 264.683 2.2354 265.687 2.21915C264.471 2.4661 271.731 2.46116 269.368 2.25493C273.08 2.38731 276.772 2.50655 280.534 2.61927C279.97 2.92264 288.668 2.76798 287.97 2.58882C288.419 2.59468 288.824 2.59992 289.241 2.60524C292.933 2.73212 296.458 2.70324 300.915 2.80079C305.551 2.89903 305 2.92294 306.411 3.07743C307.468 3.07828 308.636 3.07974 309.643 3.07962C314.646 2.76893 314.327 3.27406 321.237 3.2123C322.001 3.20484 322.863 3.18978 323.849 3.16497C326.939 3.4293 334.561 3.34257 339.51 3.29116C340.097 3.28531 340.107 3.23784 340.893 3.22684C342.86 3.20095 347.609 3.28246 347.474 3.12848C349.167 3.17996 350.865 3.23119 352.517 3.28201C353.88 3.25948 355.255 3.23683 356.642 3.21408C356.635 3.1662 356.628 3.11833 356.621 3.07045C359.426 3.244 363.691 3.19593 365.883 3.24196C366.314 3.25125 366.414 3.31761 367.722 3.33977C369.254 3.36603 372.139 3.35529 374.005 3.38129C374.733 3.31028 375.45 3.23921 376.159 3.16808C379.436 3.1376 380.607 3.3336 382.558 3.35366C382.943 3.35744 389.245 3.35901 389.609 3.35557C392.437 3.32926 391.619 3.16372 399.752 3.21566C401.209 3.22495 402.377 3.2841 403.677 3.28885C405.969 3.29751 412.963 3.18038 413.494 3.06185C416.289 3.21579 423.793 3.16549 425.998 3.21125C426.665 3.22536 426.815 3.32063 428.869 3.34337C430.532 3.36194 434.797 3.29062 436.909 3.30545C439.15 3.32158 439.945 3.40215 440.946 3.40872C441.891 3.41484 442.763 3.35117 444.052 3.35264C448.08 3.35831 451.724 3.4646 454.906 3.46844C459.506 3.47421 463.576 3.28517 467.421 3.20172C468.377 3.21441 469.318 3.25565 470.321 3.2563C482.715 3.2658 496.699 3.29903 509.132 3.33275C514.866 3.34902 529.261 3.59499 525.421 3.16616C527.454 3.08922 541.95 3.24675 544.79 3.24455C547.559 3.24319 549.732 3.1623 551.94 3.15756C558.477 3.14328 563.122 3.19074 571.147 3.10519C573.143 3.08301 575.471 2.98552 576.67 2.98356C578.154 2.98133 579.658 3.06626 581.633 3.0665C584.64 3.06676 589.419 3.04283 593.436 3.02583C595.626 3.01672 597.578 3.00968 599.028 3.00944C599.788 3.00956 600.115 3.08631 601.267 3.10616C605.674 3.18434 610.705 3.15241 609.8 2.90765C615.521 3.0223 620.766 2.86474 626.032 2.82205C637.112 2.69165 657.254 2.77159 666.936 2.01501C667.008 2.00943 667.078 2.00389 667.148 1.9984C673.274 1.54608 673.111 1.41087 682.148 1.13624C684.154 1.08303 686.152 1.04677 688.585 1.00896C694.289 0.92121 699.521 1.07639 703.865 0.817845C710.198 0.869709 715.24 0.883864 719.933 1.1743C720.487 1.13269 721.042 1.09155 721.596 1.05086C722.372 1.06403 723.148 1.07808 723.924 1.09296C724.165 1.14661 724.406 1.20035 724.647 1.25416C730.204 1.38345 737.258 1.39502 741.96 1.55826C749.845 1.81094 770.133 2.7303 777.599 3.07847C781.564 3.26479 781.78 3.16738 784.043 3.46423C784.931 3.48144 785.818 3.49815 786.706 3.51429C787.262 3.48686 787.819 3.4592 788.376 3.4313C793.463 3.60452 799.495 3.8563 804.342 3.96522C813.175 4.18451 826.438 4.17023 835.304 4.09763C837.528 4.08633 840.308 4.12503 842.485 4.06434C845.653 3.97254 846.417 3.79187 850.434 3.62808C853.37 3.50492 857.381 3.34188 861.525 3.11187C867.189 2.79513 873.083 2.90018 876.871 2.96719C878.828 3.00366 879.724 2.97204 881.082 3.00909C886.721 3.17229 891.357 3.43072 896.761 3.6767C902.559 4.20661 902.027 4.38267 903.82 4.70771C905.167 4.95324 909.303 5.61507 909.895 5.79523C910.307 5.92008 908.735 5.91935 909.313 6.06636C902.37 5.62295 899.477 5.33515 893.846 4.84924C883.441 4.2615 873.017 3.78068 862.641 4.32848C862.292 4.32744 861.945 4.32777 861.603 4.32923C860.999 4.33247 860.395 4.33453 859.791 4.33542C859.791 4.3353 859.791 4.33518 859.791 4.33506C855.785 4.50802 854.095 4.72599 851.935 4.8572C831.25 6.38712 790.487 5.0225 767.752 3.95227C762.848 3.74419 746.898 3.19198 743.537 2.9968C742.667 2.94299 742.428 2.84856 741.501 2.81346C733.22 2.58544 724.938 2.41257 716.657 2.3521C700.336 1.99963 683.47 2.32449 667.036 3.47467C666.335 3.52484 665.627 3.58146 664.909 3.62182C641.001 4.4064 617.156 4.30305 593.441 4.46512C571.22 4.55933 548.91 4.60598 526.771 4.61813C517.947 4.62275 506.694 4.6943 498.077 4.65526C494.443 4.63911 492.981 4.50119 488.223 4.6049C488.173 4.56763 488.123 4.53037 488.073 4.4931C483.929 4.53849 481.302 4.62332 476.651 4.63137C472.756 4.63828 462.413 4.64037 458.962 4.62403C457.171 4.61597 457.839 4.54668 456.169 4.54609C453.312 4.54565 447.207 4.63771 443.263 4.63419C439.699 4.6312 433.661 4.54474 430.926 4.55309C421.03 4.58289 410.253 4.68551 399.721 4.63247C396.79 4.61763 393.082 4.51919 392.163 4.51962C390.368 4.52082 389.837 4.60729 388.639 4.61575C382.622 4.65887 373.052 4.52843 367.152 4.50508C352.136 4.44642 336.417 4.40339 321.23 4.30917C316.634 4.28046 312.225 4.2477 307.847 4.20791C295.674 4.10365 275.325 3.88621 264.098 3.52929C261.628 3.45293 262.325 3.37481 260.265 3.31771C258.004 3.25306 256.756 3.27555 255.732 3.24553C251.746 3.1565 245.068 2.78665 238.788 2.45583C233.565 2.235 228.523 2.17021 225.393 2.10081C224.077 2.07309 223.125 1.98994 222.336 1.98426C221.938 1.98133 221.036 2.02611 219.785 2.02585C212.665 2.02988 206.773 2.06176 200.613 2.18191C197.208 2.24702 193.724 2.39659 189.869 2.54591C181.767 2.85547 173.128 2.97481 164.335 3.07C150.643 3.20557 136.549 3.26773 123.267 3.28112C118.516 3.28494 115.258 3.14582 114.59 3.14941C113.124 3.15692 112.187 3.25994 109.217 3.29388C99.3467 3.40557 86.0677 3.34232 76.6627 3.44479C73.1514 3.48256 68.64 3.5882 64.699 3.67119C63.387 3.69817 62.222 3.72197 61.09 3.74052C57.4577 3.7928 48.8589 3.87951 47.239 3.98224C46.2805 4.03791 45.8212 4.15699 44.6351 4.20213ZM167.412 1.71766C166.761 1.90067 173.59 1.67152 171.016 1.61112C170.449 1.59832 167.579 1.67145 167.412 1.71766ZM486.902 3.5612C486.839 3.51173 486.776 3.46225 486.713 3.41278C485.818 3.43344 484.926 3.45407 484.031 3.47468C484.534 3.50441 485.036 3.53414 485.539 3.56386C485.993 3.56298 486.443 3.56209 486.902 3.5612Z" />
</svg>
