<svg  fill="none" xmlns="http://www.w3.org/2000/svg">
<path d="M583.577 10.9893C584.307 10.9782 585.346 11.0442 586.203 11.0485C589.818 11.0671 591.16 11.1129 594.423 11.1401C599.276 11.1812 613.655 11.0959 613.658 11.5464C613.658 11.5464 613.658 11.5464 613.658 11.5464C613.658 11.5508 613.657 11.5553 613.654 11.5598C613.603 11.6457 612.379 11.7394 612.198 11.8364C612.016 11.9335 612.152 12.5605 610.415 12.5957C607.893 12.6422 601.851 12.4809 600.505 12.4876C599.589 12.4923 598.455 12.549 597.28 12.5587C593.493 12.5898 591.508 12.547 588.098 12.6989C586.727 12.6161 585.373 12.5331 584.001 12.4499C582.224 12.4856 579.516 12.3738 578.442 12.3778C577.55 12.3811 577.028 12.4446 576.105 12.4457C575.078 12.4474 573.466 12.3743 571.589 12.3798C568.487 12.3883 567.939 12.5545 566.083 12.5696C564.16 12.5851 561.155 12.4816 558.709 12.5285C558.398 12.5455 558.089 12.5624 557.78 12.5793C558.001 12.6223 558.222 12.6653 558.444 12.7083C557.198 12.7215 556.678 12.6328 555.538 12.6248C554.19 12.6151 553.519 12.6922 552.618 12.686C551.873 12.6808 550.872 12.6087 549.926 12.6058C548.52 12.601 548.829 12.6974 548.078 12.7091C547.801 12.7152 542.231 12.7165 541.933 12.7126C539.545 12.6909 539.369 12.5596 537.454 12.5247C532.224 12.4278 526.795 12.4403 521.947 12.3485C520.8 12.3268 519.616 12.2939 518.475 12.2529C517.427 12.2152 516.382 12.1746 515.36 12.133C518.772 11.9092 511.249 11.42 514.05 12.0223C511.65 11.8766 509.941 11.9685 507.662 11.886C506.19 11.8331 505.171 11.736 503.066 11.6903C499.33 11.609 495.242 11.7422 494.173 11.3576C489.787 11.3505 485.99 11.1772 484.406 11.4866C483.275 11.4946 480.378 11.2777 479.11 11.2441C477.911 11.2048 468.705 11.0923 467.199 11.0959C465.693 11.0921 463.057 11.0942 461.789 11.1285C460.195 11.1708 459.084 11.5122 456.245 11.1388C452.946 11.1961 451.771 11.1964 448.703 11.1847C448.147 11.1828 448.084 11.1252 447.759 11.129C447.091 11.1369 445.954 11.1941 444.761 11.2155C442.798 11.2507 441.678 11.1452 441.899 11.3297C440.605 11.3805 439.313 11.4325 438.02 11.4857C437.565 11.4571 437.111 11.4286 436.657 11.4003C435.966 11.4518 435.275 11.5038 434.584 11.556C435.391 11.2683 430.526 11.5221 432.11 11.6476C430.027 11.6416 427.945 11.6386 425.86 11.6384C425.446 11.6381 425.029 11.6377 424.608 11.6372C424.962 11.3227 419.094 11.7131 419.597 11.8698C419.31 11.875 419.021 11.88 418.731 11.8851C416.207 11.8488 413.864 11.9551 410.846 11.9453C407.768 11.9357 408.049 11.9005 407.128 11.7713C406.414 11.7893 405.695 11.807 404.97 11.8247C401.172 12.2622 401.841 11.5821 395.378 11.9513C393.28 11.7292 388.185 11.9071 384.823 12.0088C384.429 12.0207 384.423 12.0683 383.896 12.0873C382.593 12.1335 379.354 12.097 379.459 12.2494C378.33 12.2134 377.174 12.1773 376.056 12.1406C375.135 12.1748 374.212 12.2088 373.285 12.2427C373.29 12.2905 373.295 12.3383 373.3 12.3861C371.42 12.2353 368.515 12.3151 367.062 12.284C366.773 12.2777 366.711 12.2121 365.814 12.1989C364.77 12.1832 362.832 12.2126 361.584 12.1979C361.1 12.2733 360.615 12.3487 360.13 12.424C357.908 12.4738 357.127 12.284 355.819 12.2744C355.581 12.273 351.292 12.303 351.06 12.3077C349.167 12.3466 349.702 12.5104 344.228 12.4907C343.253 12.4869 342.464 12.432 341.582 12.4319C340.024 12.4319 335.337 12.57 334.965 12.6897C333.077 12.544 328.021 12.6112 326.536 12.569C326.087 12.5561 325.989 12.4612 324.608 12.4419C323.483 12.4262 320.6 12.5035 319.189 12.4908C317.674 12.477 317.137 12.397 316.461 12.3913C315.824 12.3859 315.236 12.4502 314.371 12.4495C311.652 12.4462 309.205 12.3404 307.056 12.3361C303.945 12.3296 301.21 12.5159 298.616 12.5955C297.972 12.5818 297.358 12.5395 296.672 12.5376C288.284 12.5133 278.934 12.4448 270.503 12.3565C267.537 12.3265 260.83 12.1192 259.422 12.2437C259.028 12.2757 258.978 12.3299 259.421 12.4151C259.458 12.4227 259.499 12.4305 259.544 12.4386C259.508 12.4403 259.467 12.4419 259.42 12.4432C257.605 12.4934 248.34 12.2389 246.478 12.2091C244.62 12.1836 243.164 12.2413 241.657 12.2204C237.218 12.1558 234.112 12.0516 228.716 11.9816C227.301 11.9622 225.859 12.0102 224.99 11.98C224.031 11.9465 222.913 11.818 221.645 11.7576C219.661 11.6638 216.421 11.5142 213.726 11.169C212.266 11.0393 210.92 10.8848 209.906 10.7538C209.369 10.6838 209.192 10.5831 208.429 10.4571C205.464 9.96151 202.149 9.44964 202.699 9.78878C198.927 9.07448 195.408 8.70633 191.891 8.34346C187.944 7.92088 182.299 7.51074 176.837 7.39161C172.004 7.28199 167.317 7.30219 164.241 7.34576C160.109 7.41015 160.218 7.52574 154.132 7.4309C152.781 7.40937 151.436 7.37973 149.798 7.35032C145.955 7.28133 142.437 7.04824 139.499 7.25023C135.23 7.11719 131.828 7.06182 128.659 6.67072C128.294 6.70101 127.899 6.72803 127.526 6.75451C127.368 6.7445 127.211 6.73428 127.057 6.72384C126.687 6.69883 126.322 6.67333 125.961 6.64737C125.804 6.58701 125.641 6.52596 125.481 6.46499C121.74 6.17536 116.984 5.8804 113.831 5.51128C108.733 4.8779 95.9515 3.40868 90.5297 3.11669C90.3355 3.10267 90.1481 3.08906 89.9692 3.07597C87.2876 2.88006 87.1546 2.97673 85.6345 2.67284C85.0317 2.65244 84.4422 2.63312 83.8379 2.61333C83.4587 2.63851 83.0901 2.66444 82.7101 2.68989C79.2846 2.49702 75.2261 2.2135 71.9625 2.0717C66.0172 1.8082 57.078 1.63892 51.1341 1.79045C50.6591 1.8015 50.1166 1.81123 49.5973 1.82416C48.4719 1.85339 47.2999 1.88274 46.3154 1.9516C44.1923 2.10509 43.6872 2.30072 40.9994 2.5534C36.376 2.99201 27.6725 3.84638 23.31 4.35241C22.0086 4.5055 21.4086 4.63398 20.5077 4.74302C16.7137 5.2024 13.6237 5.54515 10.0075 6.04061C6.11574 6.31838 6.43859 6.08186 5.2043 6.01683C4.2184 5.9737 1.46418 5.92347 1.0044 5.84043C0.708161 5.7793 1.76331 5.54354 1.35166 5.48562C5.99183 4.89495 7.98029 4.76494 11.7754 4.48631C18.7488 3.70328 25.7363 2.88926 32.7155 2.08477C33.3656 2.06709 33.9822 2.05357 34.6445 2.03562C34.6445 2.03575 34.6445 2.03587 34.6445 2.03599C37.3192 1.80216 38.4618 1.53865 39.9046 1.36145C42.6379 1.02412 45.9075 0.721855 49.521 0.494868C62.0553 -0.147775 78.4378 1.08181 90.607 1.83042C92.7699 1.96924 94.7977 2.12207 96.647 2.27674C99.9553 2.49593 110.667 3.6461 112.902 4.0112C113.482 4.1023 113.635 4.20676 114.255 4.28146C118.55 4.73586 122.838 5.12093 127.151 5.38023C128.394 5.45553 129.653 5.51085 130.919 5.55465C142.358 6.1425 154.244 5.87017 165.82 5.87932C169.498 5.88042 173.196 5.88783 176.872 5.96798C189.357 6.01587 201.691 8.40822 213.855 9.73547C228.718 11.0155 243.729 10.7429 258.634 10.9781C258.895 10.9804 259.161 10.9825 259.432 10.9846C265.231 11.0289 272.382 11.0119 277.964 11.0763C280.376 11.1041 281.426 11.247 284.598 11.1555C284.632 11.1929 284.665 11.2303 284.699 11.2677C287.536 11.2327 289.249 11.1534 292.405 11.1534C295.012 11.154 302.014 11.1625 304.32 11.1793C305.524 11.1881 305.075 11.2571 306.201 11.2582C308.151 11.2596 312.24 11.1668 314.901 11.1675C317.303 11.1685 321.365 11.2482 323.215 11.2354C329.879 11.1909 337.14 11.0612 344.243 11.0737C346.205 11.0775 348.726 11.1599 349.342 11.1553C350.543 11.1461 350.9 11.0571 351.706 11.0429C355.797 10.9719 362.191 11.0478 366.195 11.0297C379.269 10.9723 393.138 10.8244 406.157 10.666C411.482 10.6016 419.11 10.4792 425.831 10.3425C429.513 10.2679 432.945 10.2139 435.622 10.1893C437.261 10.1745 436.824 10.2783 438.2 10.255C439.726 10.2295 440.549 10.152 441.263 10.1359C446.195 10.016 457.087 9.84254 461.746 9.89766C462.634 9.90666 463.277 9.97983 463.809 9.97793C464.078 9.97713 464.685 9.92391 465.529 9.91695C472.983 9.85839 478.419 9.91059 485.722 10.0027C495.957 10.1339 507.381 10.3246 518.527 10.6941C522.581 10.8268 526.642 10.9168 530.581 10.9996C533.775 11.0658 535.975 11.2421 536.427 11.247C537.394 11.2566 538.068 11.1655 540.041 11.1633C546.692 11.1592 555.643 11.3225 561.978 11.2981C565.096 11.2869 569.391 11.1736 572.47 11.153C574.932 11.1372 580.719 11.1972 581.818 11.1425C582.479 11.1097 582.784 11.0018 583.577 10.9893ZM500.825 11.5581C501.266 11.3926 496.668 11.4465 498.39 11.573C498.777 11.6011 500.711 11.6004 500.825 11.5581ZM285.487 12.2025C285.529 12.2521 285.571 12.3017 285.614 12.3514C286.224 12.3329 286.835 12.3144 287.428 12.2957C287.09 12.2649 286.765 12.234 286.417 12.2031C286.106 12.2029 285.796 12.2027 285.487 12.2025Z" fill="#5CBCE5"/>
</svg>
