<svg viewBox="0 0 910 6" fill="none" xmlns="http://www.w3.org/2000/svg">
<path d="M865.373 1.97931C866.455 1.93841 867.982 1.95723 869.257 1.91401C873.888 1.76059 875.979 1.62186 879.648 1.51847C880.197 1.50345 880.807 1.48894 881.443 1.47589C888.662 1.29087 909.998 1.25942 910 1.7011C910 1.70111 910 1.70112 910 1.70114C910 1.70555 909.998 1.71002 909.994 1.71454C909.919 1.80037 908.103 1.89409 907.834 1.99121C907.565 2.0884 907.768 2.71503 905.189 2.751C901.45 2.79475 892.486 2.65781 890.492 2.68761C889.13 2.70296 887.452 2.77552 885.713 2.81059C883.352 2.85862 881.463 2.90009 879.698 2.96791C877.265 3.05956 875.063 3.22528 872.127 3.44748C870.091 3.45775 868.078 3.44562 866.041 3.42151C863.408 3.53635 859.386 3.50544 857.785 3.53654C856.481 3.56284 855.704 3.63906 854.327 3.66113C852.803 3.68585 850.419 3.64576 847.613 3.68332C846.742 3.69507 845.982 3.71097 845.312 3.72939C842.657 3.8039 841.675 3.92307 839.461 3.95548C836.595 3.99722 832.158 3.93063 828.508 4.0069C828.056 4.02755 827.602 4.04818 827.145 4.06879C827.472 4.10916 827.799 4.14952 828.124 4.18986C826.301 4.21785 825.49 4.13558 823.814 4.14116C821.81 4.1477 820.826 4.23289 819.477 4.23775C818.38 4.24161 816.905 4.1819 815.479 4.1911C813.418 4.20407 813.867 4.29663 812.751 4.31813C812.313 4.32682 804.092 4.40561 803.634 4.40758C800.109 4.42233 799.802 4.2943 796.994 4.29167C789.204 4.28482 781.199 4.41344 773.997 4.47995C770.79 4.50961 767.411 4.51593 764.211 4.51028C769.27 4.15661 758.079 3.95313 762.267 4.44918C758.69 4.39355 756.158 4.54704 752.78 4.54596C750.582 4.54575 749.096 4.48424 745.955 4.51416C745.862 4.51506 745.77 4.51603 745.678 4.51706C740.2 4.57473 734.316 4.85662 732.751 4.52662C726.262 4.70265 720.618 4.78236 718.296 5.20859C716.624 5.30119 712.312 5.27936 710.423 5.29216C710.22 5.29453 709.891 5.2993 709.417 5.30588C705.743 5.37965 694.712 5.36695 692.727 5.34476C690.49 5.33856 686.576 5.30793 684.69 5.31281C682.324 5.31794 680.657 5.64069 676.456 5.14191C674.214 5.09669 672.64 5.0446 671.155 4.9751C669.368 4.89128 667.732 4.77543 665.265 4.60111C664.432 4.54306 664.365 4.48087 663.869 4.45219C662.889 4.39569 661.201 4.34712 659.437 4.27251C656.515 4.14958 654.892 3.97571 655.202 4.17336C653.284 4.13496 651.356 4.10606 649.452 4.08394C648.791 4.02906 648.068 3.97329 647.434 3.92054C646.424 3.93379 645.36 3.94728 644.361 3.96359C645.577 3.71669 638.32 3.72144 640.682 3.92772C636.97 3.79523 633.277 3.67589 629.514 3.56309C630.08 3.25976 621.384 3.41429 622.083 3.59348C621.637 3.58764 621.224 3.5823 620.81 3.57701C617.122 3.45014 613.598 3.47897 609.139 3.38136C604.5 3.28304 605.056 3.25918 603.644 3.10467C602.586 3.10381 601.425 3.10239 600.412 3.10245C595.399 3.41401 595.73 2.9051 588.763 2.97025C588.013 2.97789 587.17 2.99281 586.209 3.01701C583.124 2.75269 575.494 2.83934 570.551 2.89076C569.964 2.89661 569.954 2.94408 569.168 2.95508C567.198 2.98094 562.455 2.89944 562.589 3.05341C560.897 3.00193 559.196 2.95068 557.545 2.89986C556.183 2.92239 554.809 2.94504 553.423 2.96779C553.43 3.01566 553.437 3.06354 553.443 3.11142C550.635 2.93784 546.376 2.98592 544.183 2.93989C543.753 2.93059 543.65 2.86422 542.343 2.84206C540.812 2.8158 537.928 2.82654 536.062 2.80054C535.336 2.87154 534.616 2.94261 533.908 3.01373C530.632 3.04421 529.462 2.84821 527.512 2.82814C527.126 2.82436 520.824 2.82278 520.461 2.82622C517.635 2.85252 518.45 3.01806 510.32 2.96611C508.865 2.95682 507.694 2.89766 506.395 2.89291C504.104 2.88425 497.11 3.00136 496.58 3.11989C493.786 2.96595 486.282 3.01623 484.078 2.97047C483.411 2.95636 483.262 2.86108 481.208 2.83834C479.544 2.81977 475.281 2.89108 473.17 2.87625C470.93 2.86012 470.134 2.77955 469.133 2.77297C468.188 2.76685 467.317 2.83052 466.028 2.82905C462 2.82337 458.357 2.71707 455.176 2.71323C450.576 2.70745 446.507 2.89649 442.663 2.97993C441.707 2.96724 440.766 2.92599 439.764 2.92534C427.372 2.91582 413.39 2.88256 400.959 2.84881C395.227 2.83253 380.834 2.58652 384.674 3.01536C382.638 3.0923 368.151 2.93472 365.307 2.93692C362.537 2.93828 360.37 3.01915 358.16 3.02389C351.617 3.03816 346.987 2.99066 338.954 3.07619C336.958 3.09836 334.634 3.19583 333.434 3.19778C331.945 3.20002 330.452 3.11506 328.472 3.11481C325.436 3.11455 320.606 3.13886 316.564 3.15586C314.481 3.16453 312.557 3.1707 311.096 3.17027C310.298 3.16984 310.018 3.09277 308.877 3.072C304.435 2.9909 299.455 3.01336 300.337 3.25978C294.644 3.13481 289.376 3.27735 284.1 3.2974C272.943 3.34128 252.62 3.31247 242.9 3.42031C236.772 3.48908 236.929 3.60159 227.905 3.50457C225.903 3.48285 223.909 3.45343 221.479 3.42673C215.785 3.36391 210.561 3.15239 206.221 3.39522C199.896 3.32235 194.861 3.35847 190.167 3.13547C189.614 3.18522 189.06 3.23494 188.507 3.28464C187.732 3.28409 186.957 3.2835 186.182 3.28284C185.94 3.23362 185.698 3.1844 185.457 3.13516C179.901 3.10838 172.855 3.28642 168.152 3.2679C160.269 3.24109 139.963 3.06707 132.491 2.95322C128.519 2.89451 128.31 2.99704 126.039 2.76856C125.151 2.77776 124.263 2.78688 123.375 2.79591C122.819 2.83912 122.263 2.88229 121.707 2.92543C116.618 2.89325 110.575 2.77619 105.728 2.73851C96.8892 2.67151 83.6151 2.68028 74.7432 2.50285C72.5175 2.45861 69.7345 2.33247 67.5578 2.30985C64.3877 2.27665 63.6123 2.42864 59.5872 2.38551C52.6541 2.31217 39.7322 1.96231 33.179 1.88479C31.2306 1.86209 30.3188 1.90899 28.9765 1.89646C23.3417 1.84419 18.7092 1.77069 13.3023 1.77941C7.49231 1.53515 8.00617 1.34384 6.209 1.11496C4.84922 0.942152 0.671574 0.523215 0.0789624 0.380789C-0.336865 0.28088 1.22347 0.187193 0.640311 0.0751387C7.60263 0.108363 10.5144 0.243839 16.1629 0.474404C26.5925 0.627467 37.0147 0.766074 47.448 0.891123C48.3957 0.958874 49.343 1.02651 50.29 1.09403C50.29 1.09415 50.29 1.09427 50.29 1.09439C54.2977 1.208 55.9966 1.08388 58.1557 1.07648C78.8389 1.02004 119.535 1.60658 142.302 1.74729C147.208 1.78309 163.167 1.77748 166.533 1.87847C167.404 1.9053 167.646 1.99232 168.573 1.99937C176.86 1.97754 185.142 1.9492 193.427 1.91489C210.462 2.08373 228.074 1.98288 245.239 1.95061C269.128 1.90589 292.892 1.81829 316.559 1.71658C338.811 1.62221 361.153 1.57551 383.324 1.56339C392.146 1.55879 403.395 1.48727 412.012 1.52632C415.645 1.54249 417.108 1.68041 421.865 1.57671C421.915 1.61397 421.965 1.65124 422.015 1.68851C426.156 1.64313 428.785 1.5583 433.435 1.55026C437.329 1.54336 447.67 1.54129 451.12 1.55763C452.911 1.5657 452.244 1.63498 453.912 1.63558C456.769 1.63602 462.873 1.54397 466.817 1.5475C470.379 1.55049 476.417 1.63697 479.151 1.62862C489.045 1.59884 499.82 1.49623 510.351 1.5493C513.281 1.56415 516.986 1.66258 517.908 1.66217C519.702 1.66097 520.233 1.5745 521.431 1.56604C527.448 1.52294 537.016 1.65339 542.914 1.67675C557.91 1.73539 573.603 1.77842 588.77 1.87247C593.385 1.90129 597.81 1.93416 602.209 1.97419C614.383 2.07859 634.719 2.29604 645.951 2.65355C648.414 2.72985 647.727 2.8082 649.781 2.86523C652.044 2.93006 653.292 2.90766 654.312 2.93763C658.297 3.02706 664.944 3.3961 671.212 3.72589C676.45 3.94724 681.509 4.01188 684.648 4.08129C685.963 4.10894 686.915 4.19203 687.704 4.19767C688.102 4.20058 689.004 4.15576 690.255 4.15596C697.359 4.15164 703.241 4.11961 709.387 3.99967C712.802 3.93439 716.297 3.78401 720.165 3.63438C728.255 3.32589 736.885 3.20671 745.665 3.11167C759.364 2.97605 773.466 2.91384 786.755 2.90046C791.505 2.89664 794.763 3.03576 795.431 3.03218C796.896 3.02467 797.833 2.92164 800.802 2.88771C810.671 2.77603 823.948 2.83927 833.351 2.73679C836.858 2.69905 841.363 2.59357 845.301 2.51061C846.617 2.48352 847.786 2.45962 848.921 2.44102C852.553 2.38871 861.149 2.30198 862.769 2.19922C863.729 2.14352 864.186 2.02448 865.373 1.97931ZM742.618 4.46366C743.268 4.28068 736.441 4.50966 739.015 4.57011C739.58 4.58296 742.45 4.50987 742.618 4.46366ZM423.186 2.62041C423.249 2.66988 423.312 2.71936 423.374 2.76883C424.269 2.74817 425.161 2.72754 426.055 2.70693C425.553 2.6772 425.05 2.64747 424.548 2.61775C424.094 2.61863 423.644 2.61952 423.186 2.62041Z" fill="#FFF127"/>
</svg>
