<svg viewBox="0 0 1438 7" fill="none" xmlns="http://www.w3.org/2000/svg">
<path d="M1367.23 0.80481C1368.95 0.792699 1371.38 0.857399 1373.42 0.860701C1381.9 0.875242 1385.06 0.920091 1392.75 0.945364C1404.16 0.982811 1437.99 0.897588 1438 1.34814C1438 1.34816 1438 1.34817 1438 1.34818C1438 1.3526 1438 1.35707 1437.99 1.36159C1437.87 1.44742 1434.99 1.54112 1434.56 1.6382C1434.14 1.73531 1434.46 2.36223 1430.37 2.39748C1424.44 2.44392 1410.21 2.28325 1407.06 2.29043C1404.91 2.29536 1402.23 2.3524 1399.47 2.36257C1390.56 2.39537 1385.91 2.35384 1377.87 2.50903C1374.67 2.4276 1371.44 2.3462 1368.23 2.26483C1364.06 2.30292 1357.68 2.19586 1355.15 2.20203C1353.08 2.20711 1351.83 2.27175 1349.66 2.27498C1347.21 2.27897 1343.49 2.20977 1339.03 2.22087C1331.77 2.23879 1330.44 2.40735 1326.09 2.42949C1321.56 2.45242 1314.54 2.36241 1308.73 2.42311C1308.01 2.44181 1307.28 2.46051 1306.56 2.47922C1307.08 2.52095 1307.59 2.56269 1308.11 2.60442C1305.2 2.62467 1303.98 2.53919 1301.28 2.53841C1298.12 2.53745 1296.52 2.61931 1294.42 2.61961C1292.68 2.61979 1290.31 2.55536 1288.07 2.56026C1284.8 2.56707 1285.53 2.661 1283.75 2.67929C1283.03 2.68628 1270.02 2.74388 1269.29 2.74513C1263.75 2.75157 1263.18 2.62298 1258.77 2.61417C1246.42 2.5904 1233.75 2.70385 1222.31 2.7544C1217.18 2.77699 1211.86 2.77529 1206.79 2.76091C1214.82 2.42107 1197.06 2.18653 1203.69 2.6944C1198.07 2.62828 1194.05 2.77347 1188.65 2.75871C1185.25 2.74902 1182.78 2.6816 1177.82 2.69322C1169.03 2.71389 1159.4 2.94373 1156.9 2.58401C1156.68 2.58611 1156.45 2.58811 1156.24 2.59003C1146.21 2.67783 1137.58 2.78274 1133.95 3.18848C1131.3 3.27232 1124.47 3.27463 1121.49 3.34128C1118.67 3.40401 1097.01 3.98832 1093.46 4.03465C1090.8 4.09322 1086.64 4.17142 1083.46 4.22421C1082.43 4.24196 1081.47 4.25607 1080.73 4.26929C1076.98 4.33299 1074.36 4.67536 1067.68 4.28334C1059.91 4.31792 1057.15 4.29849 1049.93 4.29563C1048.62 4.29664 1048.47 4.23986 1047.71 4.24656C1046.13 4.26124 1043.47 4.33189 1040.66 4.39654C1038.92 4.43631 1037.46 4.46373 1036.36 4.49294C1034.51 4.5416 1033.61 4.56577 1033.94 4.67265C1030.89 4.80462 1027.85 4.92028 1024.8 5.02148C1023.73 5.00969 1022.66 4.99611 1021.59 4.98082C1019.97 5.05226 1018.34 5.11977 1016.71 5.18357C1018.62 4.89304 1007.16 5.18567 1010.89 5.2999C1004.98 5.30149 999.077 5.2592 993.174 5.18725C993.998 4.89105 980.214 5.08389 981.373 5.25298C980.697 5.24716 980.022 5.24108 979.347 5.23475C973.435 5.09901 968.005 5.10146 960.8 4.95428C953.597 4.80655 954.274 4.78501 952.084 4.61504C950.39 4.60165 948.693 4.58858 946.998 4.57621C940.034 4.79933 939.488 4.44414 932.279 4.35907C930.29 4.33671 927.767 4.3349 924.45 4.37406C919.585 4.09002 907.574 4.13374 899.625 4.17692C898.7 4.18169 898.681 4.22907 897.449 4.239C894.435 4.26057 886.74 4.18495 887.006 4.3401C884.341 4.29274 881.68 4.24852 879.019 4.20845C876.834 4.23986 874.669 4.27399 872.487 4.31187C872.498 4.35967 872.51 4.40747 872.521 4.45527C868.145 4.30863 861.258 4.43517 857.858 4.45781C857.199 4.46153 857.019 4.3961 854.943 4.42052C854.419 4.42711 853.811 4.43797 853.167 4.45213C850.653 4.50784 847.297 4.59427 844.984 4.62836C843.86 4.72616 842.719 4.82374 841.577 4.92078C836.352 5.06891 834.505 4.90945 831.433 4.95485C830.878 4.95953 820.792 5.18379 820.25 5.21084C816.668 5.33474 816.793 5.42568 810.258 5.68537C808.689 5.75829 806.698 5.83796 804.209 5.87743C801.877 5.91712 800.034 5.88436 797.987 5.9073C794.356 5.95353 783.279 6.16287 782.443 6.28507C778.032 6.16673 766.051 6.2847 762.607 6.25391C761.485 6.24511 761.349 6.15086 758.086 6.14287C755.374 6.13679 748.676 6.23529 745.338 6.23225C741.659 6.2293 740.587 6.15224 738.948 6.1511C737.445 6.14993 735.978 6.21826 734.012 6.22286C727.605 6.23677 721.76 6.14557 716.824 6.15348C711.46 6.16195 706.837 6.26904 702.095 6.36388C700.384 6.40018 698.684 6.43462 696.986 6.46078C695.469 6.45074 693.96 6.41204 692.33 6.41404C672.823 6.43658 650.487 6.42411 630.854 6.40011C621.636 6.38963 598.971 6.14743 605.023 6.57513C601.819 6.65344 578.718 6.49512 574.322 6.49514C569.892 6.49541 566.449 6.57509 562.987 6.57839C552.53 6.58826 545.206 6.5368 532.517 6.61169C529.23 6.63125 525.725 6.72509 523.784 6.72514C521.447 6.72499 518.93 6.63763 515.897 6.63372C508.68 6.6251 495.214 6.66196 488.293 6.65057C487.03 6.6483 486.586 6.57058 484.773 6.54725C477.717 6.45607 469.841 6.46895 471.231 6.71709C462.194 6.58105 453.823 6.715 445.487 6.72809C427.792 6.7549 395.535 6.71934 380.151 6.83749C370.366 6.91198 370.683 7.023 356.365 6.94064C353.237 6.92241 349.96 6.89697 346.158 6.8756C337.132 6.82541 328.773 6.62944 321.991 6.88729C314.092 6.84783 307.48 6.87486 301.57 6.79427C299.858 6.77154 298.19 6.73995 296.549 6.69559C295.672 6.74793 294.797 6.80022 293.919 6.85247C292.689 6.8555 291.459 6.85845 290.23 6.86129C289.846 6.81316 289.463 6.76502 289.079 6.71688C280.272 6.7152 269.098 6.92172 261.642 6.91998C249.142 6.9252 216.948 6.80206 205.095 6.69228C198.803 6.63773 198.463 6.74003 194.862 6.51299C193.454 6.52269 192.047 6.5322 190.639 6.54151C189.758 6.5849 188.877 6.62821 187.996 6.67144C179.923 6.64031 170.348 6.5197 162.657 6.47511C148.643 6.3978 127.597 6.36711 113.525 6.14476C109.996 6.08981 105.586 5.949 102.132 5.91383C97.1019 5.86212 95.8793 6.00975 89.4959 5.9399C85.8449 5.89951 81.1486 5.82411 76.1204 5.73423C66.0301 5.56116 54.5641 5.46483 47.6239 5.4591C44.5355 5.45786 43.094 5.51597 40.9632 5.52006C34.2965 5.53376 28.5281 5.5361 22.4723 5.5742C20.3982 5.58723 18.2848 5.60444 16.1057 5.62795C6.89756 5.47422 7.69708 5.2758 4.84337 5.07558C2.68121 4.92446 -3.94395 4.57426 -4.88598 4.44191C-5.54704 4.34893 -3.0788 4.22932 -4.00539 4.12697C7.01664 4.04523 11.6591 4.13521 20.6068 4.27919C21.2426 4.27898 21.8349 4.27876 22.4723 4.27854C38.3821 4.27564 54.3146 4.26206 70.2373 4.37128C71.7482 4.43908 73.2404 4.50852 74.7484 4.58121C74.7484 4.58134 74.7484 4.58146 74.7484 4.58158C75.2348 4.59192 75.705 4.60123 76.1347 4.6093C81.513 4.70909 84.0504 4.61388 87.2161 4.62098C120.007 4.73122 184.544 5.39299 220.644 5.47157C228.423 5.50065 253.729 5.44921 259.067 5.53633C260.448 5.56008 260.832 5.64624 262.303 5.64993C275.392 5.59816 288.477 5.53417 301.567 5.46038C301.614 5.46011 301.661 5.45984 301.708 5.45957C328.709 5.5472 356.604 5.40963 383.835 5.36615C457.499 5.2505 530.431 5.15573 602.892 5.12345C616.887 5.11741 634.66 5.03831 648.34 5.06648C654.176 5.07798 656.354 5.21419 663.999 5.10273C664.079 5.13992 664.158 5.1771 664.237 5.21428C670.725 5.16204 675.06 5.07215 682.296 5.05413C686.522 5.04389 695.272 5.02764 702.093 5.01846C705.63 5.01372 708.593 5.01098 710.356 5.01247C713.143 5.01445 712.16 5.08595 714.818 5.0805C719.263 5.07104 729.042 4.9538 735.231 4.93752C740.993 4.92319 750.402 4.975 754.801 4.94744C770.385 4.83811 787.604 4.69834 804.225 4.45994C806.119 4.42835 808.255 4.37751 810.206 4.30998C812.965 4.23241 815.345 4.19038 816.19 4.16372C819.013 4.07573 819.853 3.96876 821.749 3.91124C830.51 3.65569 843.71 3.51518 853.138 3.29075C854.042 3.27038 854.993 3.25113 855.82 3.23537C880.794 2.84486 906.968 3.08857 932.288 3.27615C938.192 3.32428 944.048 3.39292 949.836 3.46822C969.188 3.74478 1001.34 4.12422 1019.19 3.79586C1023.04 3.73974 1022.02 3.85542 1025.25 3.78332C1028.83 3.69849 1030.77 3.57361 1032.44 3.51673C1033.61 3.47665 1034.91 3.42961 1036.32 3.37473C1049.05 2.90321 1070.78 3.08805 1080.63 3.03909C1081.71 3.03693 1082.65 3.04988 1083.45 3.05978C1084.21 3.06879 1084.87 3.07616 1085.47 3.06643C1086.1 3.05629 1087.53 2.98184 1089.51 2.93738C1107.03 2.53025 1119.8 2.00602 1136.98 1.6175C1143.23 1.47901 1149.66 1.37329 1156.23 1.35189C1184.16 1.26413 1214.55 1.18121 1242.53 1.20161C1250.1 1.20741 1255.21 1.35348 1256.3 1.35131C1258.64 1.34695 1260.07 1.2459 1264.81 1.21868C1280.44 1.12902 1301.55 1.22914 1316.41 1.17582C1323.78 1.14942 1333.86 1.02054 1341.1 0.991464C1346.88 0.96813 1360.52 1.01673 1363.09 0.96075C1364.66 0.926898 1365.37 0.818502 1367.23 0.80481ZM1172.56 2.62058C1173.56 2.44466 1162.76 2.61439 1166.83 2.69757C1167.76 2.71611 1172.26 2.6661 1172.56 2.62058ZM666.088 6.14423C666.187 6.1936 666.286 6.24296 666.385 6.29233C667.8 6.27015 669.204 6.24794 670.598 6.22572C669.815 6.19689 669.028 6.16806 668.238 6.13922C667.524 6.1409 666.808 6.14256 666.088 6.14423Z" />
</svg>
