<svg viewBox="0 0 910 7" fill="none" xmlns="http://www.w3.org/2000/svg">
<path d="M865.365 2.77493C866.447 2.73405 867.974 2.75288 869.25 2.70969C873.884 2.55627 875.975 2.41748 879.648 2.31392C880.196 2.29894 880.804 2.28445 881.438 2.27144C888.658 2.08623 909.998 2.05484 910 2.49651C910 2.49652 910 2.49654 910 2.49655C910 2.50096 909.998 2.50543 909.994 2.50995C909.919 2.59578 908.103 2.6895 907.834 2.78662C907.565 2.88381 907.767 3.51044 905.188 3.54641C901.448 3.59016 892.482 3.45324 890.488 3.48305C889.126 3.4984 887.448 3.57097 885.708 3.60606C883.349 3.65407 881.462 3.69554 879.698 3.76329C877.263 3.85503 875.059 4.02087 872.12 4.24321C870.083 4.25345 868.07 4.24126 866.033 4.21715C863.4 4.33195 859.376 4.30102 857.775 4.33211C856.472 4.35839 855.694 4.43461 854.316 4.45668C852.792 4.48139 850.408 4.44129 847.603 4.47884C846.735 4.49051 845.979 4.5063 845.312 4.52458C842.648 4.59906 841.665 4.71852 839.449 4.75098C836.582 4.79271 832.144 4.72611 828.493 4.80237C828.041 4.82303 827.587 4.84366 827.13 4.86426C827.458 4.90464 827.784 4.94499 828.109 4.98534C826.285 5.01333 825.475 4.93106 823.799 4.93663C821.794 4.94318 820.81 5.02836 819.46 5.03323C818.365 5.03708 816.887 4.97737 815.462 4.98657C813.401 4.99955 813.849 5.0921 812.733 5.1136C812.296 5.12229 804.073 5.20108 803.615 5.20305C800.089 5.2178 799.783 5.08977 796.973 5.08714C789.182 5.0803 781.176 5.20892 773.973 5.27545C770.766 5.30511 767.386 5.31145 764.185 5.30582C769.246 4.95211 758.05 4.7487 762.241 5.24472C758.663 5.18911 756.13 5.34261 752.751 5.34157C750.556 5.34135 749.064 5.2799 745.926 5.30983C745.843 5.31064 745.761 5.3115 745.678 5.31241C740.191 5.3695 734.287 5.65313 732.72 5.32261C726.227 5.49892 720.585 5.57913 718.261 6.00542C716.59 6.09815 712.276 6.07591 710.386 6.08849C710.192 6.09071 709.872 6.09532 709.417 6.10161C705.779 6.17507 694.679 6.16268 692.688 6.14011C690.45 6.13381 686.536 6.103 684.649 6.10776C682.283 6.11274 680.616 6.43544 676.414 5.93621C674.193 5.89119 672.628 5.83938 671.155 5.77058C669.352 5.68617 667.708 5.5695 665.221 5.39389C664.391 5.33609 664.318 5.27357 663.825 5.2451C662.842 5.18854 661.156 5.14028 659.391 5.06583C656.475 4.94347 654.846 4.76943 655.156 4.96711C653.241 4.92896 651.306 4.89995 649.406 4.87805C648.742 4.8231 648.025 4.76756 647.388 4.71475C646.374 4.72795 645.317 4.74164 644.313 4.75789C645.529 4.51094 638.269 4.51588 640.632 4.72212C636.92 4.58973 633.228 4.47049 629.466 4.35777C630.03 4.05441 621.332 4.20906 622.03 4.38822C621.581 4.38236 621.176 4.37712 620.759 4.3718C617.067 4.24493 613.542 4.27381 609.085 4.17625C604.449 4.07801 605 4.0541 603.589 3.89961C602.532 3.89876 601.364 3.89731 600.357 3.89743C595.354 4.20811 595.673 3.70298 588.763 3.76474C587.999 3.77221 587.137 3.78726 586.151 3.81207C583.061 3.54774 575.439 3.63447 570.49 3.68588C569.903 3.69173 569.893 3.7392 569.107 3.7502C567.14 3.77609 562.391 3.69458 562.526 3.84856C560.833 3.79708 559.135 3.74585 557.483 3.69502C556.12 3.71756 554.745 3.74021 553.358 3.76296C553.365 3.81084 553.372 3.85871 553.379 3.90659C550.574 3.73303 546.309 3.78111 544.117 3.73508C543.686 3.72579 543.586 3.65943 542.278 3.63726C540.746 3.611 537.861 3.62175 535.995 3.59575C535.267 3.66676 534.55 3.73783 533.841 3.80895C530.564 3.83944 529.393 3.64344 527.442 3.62337C527.057 3.6196 520.755 3.61802 520.391 3.62147C517.563 3.64777 518.381 3.81332 510.248 3.76138C508.791 3.75209 507.623 3.69293 506.323 3.68819C504.031 3.67953 497.037 3.79665 496.506 3.91518C493.711 3.76125 486.207 3.81154 484.002 3.76578C483.335 3.75168 483.185 3.6564 481.131 3.63366C479.468 3.61509 475.203 3.68641 473.091 3.67158C470.85 3.65545 470.055 3.57488 469.054 3.56831C468.109 3.56219 467.237 3.62586 465.948 3.62439C461.92 3.61872 458.276 3.51243 455.094 3.50859C450.494 3.50281 446.424 3.69186 442.579 3.77531C441.623 3.76262 440.682 3.72137 439.679 3.72073C427.285 3.71122 413.301 3.67799 400.868 3.64427C395.134 3.628 380.739 3.38203 384.579 3.81086C382.546 3.8878 368.05 3.73027 365.21 3.73247C362.441 3.73384 360.268 3.81472 358.06 3.81946C351.523 3.83374 346.878 3.78628 338.853 3.87183C336.857 3.89401 334.529 3.9915 333.33 3.99345C331.846 3.99569 330.342 3.91076 328.367 3.91051C325.36 3.91026 320.581 3.93419 316.564 3.95119C314.374 3.9603 312.422 3.96734 310.972 3.96758C310.212 3.96746 309.885 3.89071 308.733 3.87086C304.326 3.79268 299.295 3.82461 300.2 4.06937C294.479 3.95472 289.234 4.11228 283.968 4.15496C272.888 4.28536 252.746 4.20542 243.064 4.962C242.992 4.96758 242.922 4.97312 242.852 4.97861C236.726 5.43093 236.889 5.56614 227.852 5.84077C225.846 5.89398 223.848 5.93024 221.415 5.96805C215.711 6.0558 210.479 5.90061 206.135 6.15916C199.802 6.1073 194.76 6.09314 190.067 5.80271C189.513 5.84432 188.958 5.88545 188.404 5.92614C187.628 5.91298 186.852 5.89893 186.076 5.88404C185.835 5.83039 185.594 5.77666 185.353 5.72285C179.796 5.59355 172.742 5.58199 168.04 5.41874C160.155 5.16606 139.867 4.24671 132.401 3.89853C128.436 3.71221 128.22 3.80962 125.957 3.51277C125.069 3.49556 124.182 3.47885 123.294 3.46271C122.738 3.49014 122.181 3.5178 121.624 3.5457C116.537 3.37248 110.505 3.1207 105.658 3.01178C96.825 2.79249 83.5619 2.80676 74.6959 2.87936C72.4721 2.89066 69.6922 2.85197 67.515 2.91266C64.3473 3.00445 63.5826 3.18512 59.5662 3.34892C56.6295 3.47208 52.619 3.63511 48.4749 3.86512C42.8107 4.18186 36.9169 4.07681 33.1288 4.0098C31.1716 3.97333 30.2762 4.00495 28.9181 3.9679C23.2795 3.80471 18.6429 3.54627 13.2389 3.30029C7.44056 2.77039 7.97349 2.59432 6.17968 2.26928C4.83286 2.02375 0.697315 1.36192 0.104517 1.18176C-0.306939 1.05691 1.26495 1.05764 0.686744 0.910631C7.63042 1.35404 10.5226 1.64184 16.1536 2.12775C26.5594 2.71549 36.9833 3.19631 47.3593 2.64852C47.7079 2.64955 48.0551 2.64922 48.3968 2.64776C49.001 2.64452 49.605 2.64247 50.2089 2.64157C50.2089 2.64169 50.2089 2.64182 50.2089 2.64194C54.2151 2.46898 55.9052 2.251 58.0647 2.1198C78.7502 0.589875 119.513 1.9545 142.248 3.02473C147.152 3.23282 163.102 3.78503 166.463 3.9802C167.333 4.03401 167.572 4.12845 168.499 4.16354C176.78 4.39156 185.062 4.56444 193.343 4.6249C209.664 4.97738 226.53 4.65252 242.964 3.50234C243.665 3.45217 244.373 3.39555 245.091 3.35519C268.999 2.57061 292.844 2.67396 316.559 2.51189C338.78 2.41769 361.09 2.37104 383.229 2.3589C392.053 2.35427 403.306 2.28272 411.923 2.32176C415.557 2.33792 417.019 2.47584 421.777 2.37213C421.827 2.40939 421.877 2.44666 421.927 2.48393C426.071 2.43854 428.698 2.35371 433.349 2.34566C437.244 2.33875 447.587 2.33666 451.038 2.35299C452.829 2.36106 452.161 2.43035 453.831 2.43094C456.688 2.43138 462.793 2.33932 466.737 2.34284C470.301 2.34583 476.339 2.43229 479.074 2.42394C488.97 2.39414 499.747 2.29152 510.279 2.34456C513.21 2.35941 516.918 2.45784 517.837 2.45742C519.632 2.45622 520.163 2.36975 521.361 2.36129C527.378 2.31817 536.948 2.4486 542.848 2.47196C557.864 2.53062 573.583 2.57365 588.77 2.66787C593.366 2.69659 597.775 2.72934 602.153 2.76913C614.326 2.87339 634.675 3.09083 645.902 3.44776C648.372 3.52411 647.675 3.60224 649.735 3.65934C651.996 3.72399 653.244 3.7015 654.268 3.73151C658.254 3.82054 664.932 4.19039 671.212 4.52122C676.435 4.74205 681.477 4.80684 684.607 4.87624C685.923 4.90396 686.875 4.98711 687.664 4.99279C688.062 4.99572 688.964 4.95094 690.215 4.9512C697.335 4.94717 703.227 4.91529 709.387 4.79514C712.792 4.73003 716.276 4.58047 720.131 4.43114C728.233 4.12159 736.872 4.00225 745.665 3.90705C759.357 3.77149 773.451 3.70933 786.733 3.69594C791.484 3.69212 794.742 3.83124 795.41 3.82765C796.876 3.82014 797.813 3.71712 800.783 3.68318C810.653 3.5715 823.932 3.63474 833.337 3.53228C836.849 3.4945 841.36 3.38886 845.301 3.30588C846.613 3.27889 847.778 3.25509 848.91 3.23655C852.542 3.18426 861.141 3.09755 862.761 2.99482C863.72 2.93915 864.179 2.82007 865.365 2.77493ZM742.588 5.25939C743.239 5.07638 736.41 5.30553 738.984 5.36593C739.551 5.37873 742.421 5.30561 742.588 5.25939ZM423.098 3.41582C423.161 3.4653 423.224 3.51477 423.287 3.56425C424.182 3.54359 425.074 3.52295 425.969 3.50235C425.466 3.47261 424.964 3.44289 424.461 3.41317C424.007 3.41405 423.557 3.41493 423.098 3.41582Z" />
</svg>
